<?xml version="1.0" encoding="UTF-8" standalone="no"?>
<!-- Created with Inkscape (http://www.inkscape.org/) -->

<svg
   width="734"
   height="833"
   viewBox="0 0 194.20416 220.39792"
   version="1.1"
   id="svg5"
   xml:space="preserve"
   inkscape:version="1.2.2 (b0a8486541, 2022-12-01)"
   sodipodi:docname="anon_logo_index.svg"
   xmlns:inkscape="http://www.inkscape.org/namespaces/inkscape"
   xmlns:sodipodi="http://sodipodi.sourceforge.net/DTD/sodipodi-0.dtd"
   xmlns="http://www.w3.org/2000/svg"
   xmlns:svg="http://www.w3.org/2000/svg"><sodipodi:namedview
     id="namedview7"
     pagecolor="#ffffff"
     bordercolor="#666666"
     borderopacity="1.0"
     inkscape:showpageshadow="2"
     inkscape:pageopacity="0.0"
     inkscape:pagecheckerboard="0"
     inkscape:deskcolor="#d1d1d1"
     inkscape:document-units="px"
     showgrid="false"
     inkscape:zoom="0.79642256"
     inkscape:cx="372.91761"
     inkscape:cy="432.55932"
     inkscape:window-width="1920"
     inkscape:window-height="1055"
     inkscape:window-x="0"
     inkscape:window-y="25"
     inkscape:window-maximized="1"
     inkscape:current-layer="layer1" /><defs
     id="defs2"><inkscape:path-effect
       effect="skeletal"
       id="path-effect1438"
       is_visible="true"
       lpeversion="1"
       pattern="M 0,4.9921382 C 0,2.2364779 2.2364779,0 4.9921382,0 c 2.7556604,0 4.9921383,2.2364779 4.9921383,4.9921382 0,2.7556604 -2.2364779,4.9921383 -4.9921383,4.9921383 C 2.2364779,9.9842765 0,7.7477986 0,4.9921382 Z"
       copytype="single_stretched"
       prop_scale="1"
       scale_y_rel="false"
       spacing="0"
       normal_offset="0"
       tang_offset="0"
       prop_units="false"
       vertical_pattern="false"
       hide_knot="false"
       fuse_tolerance="0" /><inkscape:path-effect
       effect="spiro"
       id="path-effect1436"
       is_visible="true"
       lpeversion="1" /><inkscape:path-effect
       effect="skeletal"
       id="path-effect1432"
       is_visible="true"
       lpeversion="1"
       pattern="M 0,4.9921382 C 0,2.2364779 2.2364779,0 4.9921382,0 c 2.7556604,0 4.9921383,2.2364779 4.9921383,4.9921382 0,2.7556604 -2.2364779,4.9921383 -4.9921383,4.9921383 C 2.2364779,9.9842765 0,7.7477986 0,4.9921382 Z"
       copytype="single_stretched"
       prop_scale="1"
       scale_y_rel="false"
       spacing="0"
       normal_offset="0"
       tang_offset="0"
       prop_units="false"
       vertical_pattern="false"
       hide_knot="false"
       fuse_tolerance="0" /><inkscape:path-effect
       effect="spiro"
       id="path-effect1430"
       is_visible="true"
       lpeversion="1" /><inkscape:path-effect
       effect="skeletal"
       id="path-effect1426"
       is_visible="true"
       lpeversion="1"
       pattern="M 0,4.9921382 C 0,2.2364779 2.2364779,0 4.9921382,0 c 2.7556604,0 4.9921383,2.2364779 4.9921383,4.9921382 0,2.7556604 -2.2364779,4.9921383 -4.9921383,4.9921383 C 2.2364779,9.9842765 0,7.7477986 0,4.9921382 Z"
       copytype="single_stretched"
       prop_scale="1"
       scale_y_rel="false"
       spacing="0"
       normal_offset="0"
       tang_offset="0"
       prop_units="false"
       vertical_pattern="false"
       hide_knot="false"
       fuse_tolerance="0" /><inkscape:path-effect
       effect="spiro"
       id="path-effect1424"
       is_visible="true"
       lpeversion="1" /><inkscape:path-effect
       effect="skeletal"
       id="path-effect1420"
       is_visible="true"
       lpeversion="1"
       pattern="M 0,4.9921382 C 0,2.2364779 2.2364779,0 4.9921382,0 c 2.7556604,0 4.9921383,2.2364779 4.9921383,4.9921382 0,2.7556604 -2.2364779,4.9921383 -4.9921383,4.9921383 C 2.2364779,9.9842765 0,7.7477986 0,4.9921382 Z"
       copytype="single_stretched"
       prop_scale="1"
       scale_y_rel="false"
       spacing="0"
       normal_offset="0"
       tang_offset="0"
       prop_units="false"
       vertical_pattern="false"
       hide_knot="false"
       fuse_tolerance="0" /><inkscape:path-effect
       effect="spiro"
       id="path-effect1418"
       is_visible="true"
       lpeversion="1" /><inkscape:path-effect
       effect="skeletal"
       id="path-effect1414"
       is_visible="true"
       lpeversion="1"
       pattern="M 0,4.9921382 C 0,2.2364779 2.2364779,0 4.9921382,0 c 2.7556604,0 4.9921383,2.2364779 4.9921383,4.9921382 0,2.7556604 -2.2364779,4.9921383 -4.9921383,4.9921383 C 2.2364779,9.9842765 0,7.7477986 0,4.9921382 Z"
       copytype="single_stretched"
       prop_scale="1"
       scale_y_rel="false"
       spacing="0"
       normal_offset="0"
       tang_offset="0"
       prop_units="false"
       vertical_pattern="false"
       hide_knot="false"
       fuse_tolerance="0" /><inkscape:path-effect
       effect="spiro"
       id="path-effect1412"
       is_visible="true"
       lpeversion="1" /><inkscape:path-effect
       effect="skeletal"
       id="path-effect1408"
       is_visible="true"
       lpeversion="1"
       pattern="M 0,4.9921382 C 0,2.2364779 2.2364779,0 4.9921382,0 c 2.7556604,0 4.9921383,2.2364779 4.9921383,4.9921382 0,2.7556604 -2.2364779,4.9921383 -4.9921383,4.9921383 C 2.2364779,9.9842765 0,7.7477986 0,4.9921382 Z"
       copytype="single_stretched"
       prop_scale="1"
       scale_y_rel="false"
       spacing="0"
       normal_offset="0"
       tang_offset="0"
       prop_units="false"
       vertical_pattern="false"
       hide_knot="false"
       fuse_tolerance="0" /><inkscape:path-effect
       effect="spiro"
       id="path-effect1406"
       is_visible="true"
       lpeversion="1" /><inkscape:path-effect
       effect="skeletal"
       id="path-effect1402"
       is_visible="true"
       lpeversion="1"
       pattern="M 0,4.9921382 C 0,2.2364779 2.2364779,0 4.9921382,0 c 2.7556604,0 4.9921383,2.2364779 4.9921383,4.9921382 0,2.7556604 -2.2364779,4.9921383 -4.9921383,4.9921383 C 2.2364779,9.9842765 0,7.7477986 0,4.9921382 Z"
       copytype="single_stretched"
       prop_scale="1"
       scale_y_rel="false"
       spacing="0"
       normal_offset="0"
       tang_offset="0"
       prop_units="false"
       vertical_pattern="false"
       hide_knot="false"
       fuse_tolerance="0" /><inkscape:path-effect
       effect="spiro"
       id="path-effect1400"
       is_visible="true"
       lpeversion="1" /><inkscape:path-effect
       effect="skeletal"
       id="path-effect1396"
       is_visible="true"
       lpeversion="1"
       pattern="M 0,4.9921382 C 0,2.2364779 2.2364779,0 4.9921382,0 c 2.7556604,0 4.9921383,2.2364779 4.9921383,4.9921382 0,2.7556604 -2.2364779,4.9921383 -4.9921383,4.9921383 C 2.2364779,9.9842765 0,7.7477986 0,4.9921382 Z"
       copytype="single_stretched"
       prop_scale="1"
       scale_y_rel="false"
       spacing="0"
       normal_offset="0"
       tang_offset="0"
       prop_units="false"
       vertical_pattern="false"
       hide_knot="false"
       fuse_tolerance="0" /><inkscape:path-effect
       effect="spiro"
       id="path-effect1394"
       is_visible="true"
       lpeversion="1" /><inkscape:path-effect
       effect="skeletal"
       id="path-effect1112"
       is_visible="true"
       lpeversion="1"
       pattern="M 0,4.9921382 C 0,2.2364779 2.2364779,0 4.9921382,0 c 2.7556604,0 4.9921383,2.2364779 4.9921383,4.9921382 0,2.7556604 -2.2364779,4.9921383 -4.9921383,4.9921383 C 2.2364779,9.9842765 0,7.7477986 0,4.9921382 Z"
       copytype="single_stretched"
       prop_scale="1"
       scale_y_rel="false"
       spacing="0"
       normal_offset="0"
       tang_offset="0"
       prop_units="false"
       vertical_pattern="false"
       hide_knot="false"
       fuse_tolerance="0" /><inkscape:path-effect
       effect="spiro"
       id="path-effect1110"
       is_visible="true"
       lpeversion="1" /><inkscape:path-effect
       effect="simplify"
       id="path-effect1108"
       is_visible="true"
       lpeversion="1"
       steps="1"
       threshold="0.00243902"
       smooth_angles="360"
       helper_size="0"
       simplify_individual_paths="false"
       simplify_just_coalesce="false" /><inkscape:path-effect
       effect="bspline"
       id="path-effect1012"
       is_visible="true"
       lpeversion="1"
       weight="33.333333"
       steps="2"
       helper_size="0"
       apply_no_weight="true"
       apply_with_weight="true"
       only_selected="false" /><inkscape:path-effect
       effect="simplify"
       id="path-effect809"
       is_visible="true"
       lpeversion="1"
       steps="1"
       threshold="0.000408163"
       smooth_angles="360"
       helper_size="0"
       simplify_individual_paths="false"
       simplify_just_coalesce="false" /><inkscape:path-effect
       effect="simplify"
       id="path-effect805"
       is_visible="true"
       lpeversion="1"
       steps="1"
       threshold="0.000408163"
       smooth_angles="360"
       helper_size="0"
       simplify_individual_paths="false"
       simplify_just_coalesce="false" /><inkscape:path-effect
       effect="simplify"
       id="path-effect801"
       is_visible="true"
       lpeversion="1"
       steps="1"
       threshold="0.000408163"
       smooth_angles="360"
       helper_size="0"
       simplify_individual_paths="false"
       simplify_just_coalesce="false" /><inkscape:path-effect
       effect="simplify"
       id="path-effect919"
       is_visible="true"
       lpeversion="1"
       steps="1"
       threshold="0.000408163"
       smooth_angles="360"
       helper_size="0"
       simplify_individual_paths="false"
       simplify_just_coalesce="false" /><inkscape:path-effect
       effect="simplify"
       id="path-effect915"
       is_visible="true"
       lpeversion="1"
       steps="1"
       threshold="0.000408163"
       smooth_angles="360"
       helper_size="0"
       simplify_individual_paths="false"
       simplify_just_coalesce="false" /></defs><g
     inkscape:label="Layer 1"
     inkscape:groupmode="layer"
     id="layer1"><g
       id="g2417"
       transform="matrix(1.07705,0,0,1.07705,-12.682931,-18.174367)"><g
         id="g923"
         transform="matrix(1.6794519,0,0,1.1397677,-49.600429,27.345328)"
         style="stroke:#208dd4;stroke-opacity:1"><path
           style="fill:none;stroke:#208dd4;stroke-width:5;stroke-linecap:butt;stroke-linejoin:miter;stroke-dasharray:none;stroke-opacity:1"
           d="m 67.235551,59.452239 c 0.526289,6.39e-4 1.060552,0.124698 1.581786,-0.02262 1.197409,-0.338427 2.325079,-0.871551 3.461291,-1.369033 0.950522,-0.416179 1.829968,-1.030314 2.858825,-1.238292 0.831478,-0.168079 1.680356,0.199181 2.504899,0.0031 1.118394,-0.266027 2.229608,-0.562385 3.335275,-0.876711 1.067722,-0.303539 2.141486,-0.594303 3.182872,-0.980441 0.582326,-0.215922 1.123963,-0.526491 1.654997,-0.844699 0.666913,-0.39963 1.33689,-0.793831 1.999402,-1.201073 0.248436,-0.152712 0.523398,-0.309931 0.826179,-0.279288 0.321878,0.03258 0.645348,0.02278 0.968272,0.0226 1.149102,-6.28e-4 2.298704,0.03215 3.447316,-9.5e-4 0.508162,-0.01464 1.00815,-0.216372 1.5182,-0.123348 0.273279,0.04984 0.49345,0.230512 0.715738,0.383657 1.746228,1.203059 3.112308,2.850261 4.742217,4.193067 1.27281,1.048609 2.71486,1.918679 3.824,3.139078 0.85549,0.941307 1.50415,2.041144 2.18899,3.105862 0.31518,0.490006 0.63886,0.975951 0.91859,1.488028 0.0832,0.152378 0.10021,0.324953 0.11396,0.497505 0.0324,0.406832 0.1886,0.791003 0.34387,1.163501 0.36445,0.874315 0.76732,1.733336 1.2125,2.569105 0.59465,1.116385 1.30722,2.16396 2.03909,3.192666 0.33229,0.467063 0.83656,0.823018 1.02786,1.380737 0.30043,0.875885 0.1692,1.820727 0.35801,2.717092 0.0705,0.334698 0.18774,0.659262 0.24309,0.997857 0.0196,0.119899 0.10135,0.09773 0.17053,0.003 0.1198,-0.16404 0.22409,0.09778 0.26185,0.19595 0.1835,0.477032 0.31048,0.974331 0.42078,1.472423 0.092,0.415642 0.10704,0.861682 -0.0546,1.263168 -0.11963,0.297215 -0.24264,0.601385 -0.24587,0.927935 -0.005,0.498137 0.11629,0.993005 0.30536,1.448915 0.26343,0.635211 0.80493,1.085232 1.20968,1.624838 0.243,0.323964 0.41936,0.707386 0.44035,1.118334 0.0282,0.552852 -0.0984,1.097012 -0.0983,1.650177 3.4e-4,2.212912 -0.0512,4.426443 5.1e-4,6.638741 0.007,0.300884 0.18116,0.620965 0.0414,0.902932 -0.13735,0.27706 -0.36927,0.494252 -0.60123,0.692819 -0.43399,0.371516 -0.95068,0.682976 -1.23526,1.194871 -0.27199,0.489253 -0.26053,1.066356 -0.26844,1.60961 -0.006,0.424417 0.0349,0.883099 -0.165,1.264306 -0.17928,0.341921 -0.60638,0.443382 -0.80125,0.775189 -0.14707,0.25042 -0.32257,0.49712 -0.38168,0.78547 -0.0372,0.18136 0.10967,0.32276 0.12822,0.49815 0.0257,0.24307 0.0207,0.50702 -0.0936,0.72016 -0.082,0.15301 -0.29222,0.17665 -0.34478,0.36458 -0.14439,0.51627 -9.6e-4,1.08857 -0.24617,1.57893 -0.18678,0.37351 -0.5903,0.56268 -0.97171,0.67927 -0.54866,0.16771 -1.14762,0.1548 -1.67319,0.38806 -0.26945,0.11959 -0.50701,0.30475 -0.77799,0.42144 -0.13682,0.0589 -0.19984,0.21541 -0.0317,0.29957 0.11201,0.0561 0.12973,0.1959 0.0582,0.29807 -0.15625,0.22309 -0.37369,0.39875 -0.60193,0.54295 -0.60055,0.37942 -1.2823,0.60091 -1.95329,0.81976 -0.6363,0.20753 -1.28238,0.38798 -1.90348,0.64095 -0.40808,0.16621 -0.71937,0.49005 -0.99288,0.82497 -0.24264,0.29712 -0.49693,0.58493 -0.78902,0.83652 -0.53056,0.45699 -1.139204,0.82308 -1.635822,1.31657 -0.221684,0.22029 -0.389891,0.49923 -0.680649,0.64768 -0.561327,0.28659 -1.425299,0.21872 -1.720521,0.7803 -0.06364,0.12105 0.03202,0.24527 -1.87e-4,0.38537 -0.08044,0.34993 -0.131152,0.73357 -0.38757,1.00861 -0.249879,0.26803 -0.545739,0.55745 -0.904446,0.60016 -0.115893,0.0138 -0.242644,-0.0967 -0.331305,0.064 -0.135659,0.24583 -0.278119,0.49946 -0.314911,0.7834 -0.01807,0.13947 0.0994,0.27075 0.03099,0.40738 -0.126983,0.25362 -0.337943,0.45159 -0.52724,0.65871 -0.109052,0.11932 -0.229767,0.22633 -0.382985,0.29193 -0.156497,0.067 -0.408829,0.0751 -0.452083,0.24842 -0.03179,0.12737 0.01638,0.25473 0.02491,0.38602 0.01981,0.30488 0.133957,0.63719 -0.02489,0.91999 -0.172462,0.30703 -0.609956,0.38205 -0.724048,0.72411 -0.08129,0.24372 0.01748,0.49356 0.01753,0.74259 3.95e-4,2.05885 -0.09625,4.12001 5.92e-4,6.17657 0.0087,0.18445 0.171529,0.37947 0.08296,0.54651 -0.07523,0.14188 -0.242413,0.0162 -0.282853,-0.0996 -0.07848,-0.22477 -0.107328,-0.46288 -0.148461,-0.69658 -0.191418,-1.08756 -0.300717,-2.19179 -0.301321,-3.29499 -1.64e-4,-0.29935 -0.151452,-0.67121 0.04625,-0.89808 0.07386,-0.0847 -0.06848,-0.0775 -0.129655,-0.15207 -0.249227,-0.30369 -0.500095,-0.62876 -0.608303,-1.00442 -0.03856,-0.13388 0.0087,-0.27009 0.0086,-0.40736 -8.99e-4,-1.27548 0.03376,-2.55147 -0.0014,-3.82644 -0.01491,-0.54121 -0.203738,-1.09756 -0.03451,-1.62733 0.186734,-0.58457 0.604162,-1.05402 1.014187,-1.49389 0.177414,-0.19033 0.324115,-0.40961 0.513281,-0.58768 0.148778,-0.14005 0.375359,-0.23262 0.416398,-0.45754 0.0584,-0.32005 -0.146798,-0.64638 -0.0059,-0.95752 0.166685,-0.36808 0.327044,-0.7432 0.557438,-1.07818 0.117137,-0.17031 0.315399,-0.2436 0.503979,-0.30576 0.500121,-0.16486 0.902725,-0.51887 1.294139,-0.8582 0.224217,-0.19438 0.581293,-0.25375 0.725674,-0.51499 0.215099,-0.3892 0.550995,-0.73793 0.990565,-0.8604 0.526565,-0.14671 1.06983,-0.0144 1.595063,0.067 0.424157,0.0657 0.895558,0.16251 1.285098,-0.044 0.30756,-0.16305 0.41287,-0.52991 0.70463,-0.71812 0.4608,-0.29726 1.03333,-0.41576 1.42364,-0.82176 0.25353,-0.26372 0.5625,-0.54786 0.60146,-0.90882 0.0134,-0.12442 -0.089,-0.24931 0.0717,-0.35472 0.81787,-0.53669 2.02481,-0.73082 2.4536,-1.61007 0.12527,-0.25687 0.18551,-0.56009 0.42196,-0.75041 0.31003,-0.24954 0.70802,-0.36625 0.99007,-0.658 0.22814,-0.23598 0.4477,-0.4815 0.63918,-0.75184 0.0852,-0.12025 -0.008,-0.23465 -0.0901,-0.33019 -0.12448,-0.14407 -0.0449,-0.34872 0.0316,-0.49404 0.24515,-0.465998 0.58898,-0.871184 0.93014,-1.268424 0.9822,-1.143641 2.32277,-1.897181 3.34082,-3.005735 0.87585,-0.953713 1.71341,-1.958413 2.35389,-3.082024 0.19012,-0.333534 0.20349,-0.726846 0.35996,-1.07673 0.26473,-0.591969 0.44179,-1.234469 0.80728,-1.770461 0.0923,-0.135374 -0.0202,0.159308 -0.0415,0.213775 -0.0726,0.185094 -0.28257,0.743076 -0.22826,0.552443 0.10154,-0.356391 0.25072,-0.698193 0.36484,-1.050737 0.19401,-0.599365 0.5418,-1.137646 0.70834,-1.746712 0.18028,-0.659317 0.0383,-1.341807 0.0386,-2.012085 6.9e-4,-1.362773 -0.0293,-2.725906 0.001,-4.088328 0.0165,-0.741529 0.24562,-1.477259 0.13371,-2.22022 -0.0834,-0.553618 -0.42027,-1.02958 -0.78713,-1.435652 -0.61006,-0.675263 -1.43583,-1.181104 -1.86344,-1.996505 -0.10955,-0.208897 -0.0192,-0.44669 0.0285,-0.658734 0.0344,-0.152951 0.0131,-0.311363 -0.0593,-0.454991 -0.45831,-0.909211 -1.18575,-1.638953 -1.71833,-2.501784 -0.95995,-1.555212 -1.94702,-3.095746 -2.83102,-4.695454 -0.16331,-0.29553 -0.3566,-0.578697 -0.47446,-0.895852 -0.60461,-1.627016 -0.64173,-3.419302 -1.32862,-5.014371 -0.24382,-0.566191 -0.91783,-0.857175 -1.08808,-1.446051 -0.0651,-0.225141 0.10064,-0.45334 -0.008,-0.680271 -0.19781,-0.412779 -0.52923,-0.735631 -0.78495,-1.111318 -0.6009,-0.882811 -1.13878,-1.822174 -1.8769,-2.59761 -0.14944,-0.156995 -0.28171,-0.343362 -0.4723,-0.45008 -0.31127,-0.17429 -0.71465,-0.106029 -0.99696,-0.346336 -0.49569,-0.421946 -0.89497,-0.941834 -1.25364,-1.481599 -0.3405,-0.51242 -0.70904,-1.02212 -1.204145,-1.395237 -0.152666,-0.115052 -0.290269,-0.274246 -0.475359,-0.323356 -0.233842,-0.06204 -0.475777,0.145408 -0.700756,0.01964 -0.778643,-0.435289 -1.329862,-1.178938 -2.12979,-1.586787 -0.87138,-0.44428 -1.822196,-0.739838 -2.636366,-1.288588 -0.255699,-0.172341 -0.565177,-0.347357 -0.66069,-0.648381 -0.069,-0.217468 0.20142,-0.517705 0.0059,-0.656707 -0.10833,-0.07701 -0.238052,0.01667 -0.359217,0.01666 -1.526198,-2.45e-4 -3.052639,0.0263 -4.578599,-3.67e-4 -0.207194,-0.0036 -0.442687,-0.140871 -0.626451,-0.01101 -0.696949,0.49251 -1.05851,1.36765 -1.807424,1.776412 -0.203367,0.110999 -0.430251,-0.01025 -0.64406,-0.01122 -0.509014,-0.0023 -1.018218,0.0079 -1.527073,-0.0048 -0.448781,-0.01118 -0.904803,-0.08319 -1.348284,0.0013 -0.750038,0.142845 -1.40616,0.622173 -2.165618,0.701281 -0.20752,0.02162 -0.431711,-0.124187 -0.623284,-0.006 -0.433959,0.26766 -0.73774,0.683886 -1.062864,1.065311 -0.114599,0.134444 -0.213115,0.32155 -0.415593,0.332909 -0.393339,0.02207 -0.806861,-0.16419 -1.178596,-0.034 -0.131287,0.04598 -0.233705,0.155222 -0.3396,0.243961 -0.702379,0.588587 -1.258634,1.327299 -1.936852,1.940367 -0.193608,0.17501 -0.502659,0.302586 -0.545965,0.563216 -0.02289,0.137777 0.04683,0.258357 -0.04997,0.407241 -0.305672,0.470171 -0.769498,0.831077 -1.029364,1.325965 -0.517678,0.985863 -0.996808,1.993283 -1.583918,2.941366 -0.399851,0.645692 -0.908222,1.222011 -1.280931,1.885703 -0.05856,0.104272 -0.225357,0.168899 -0.193216,0.308473 0.08758,0.380324 0.06208,0.775349 0.04248,1.16157 -0.0483,0.951859 -0.232701,1.890048 -0.435012,2.819135 -0.137312,0.630589 -0.311518,1.252984 -0.535875,1.859027 -0.214848,0.580358 -0.483749,1.15343 -0.563636,1.770234 -0.05646,0.43591 0.0031,0.873446 0.02437,1.309694 0.01113,0.228711 0.103741,0.500647 -0.05084,0.691005 -0.09391,0.115647 -0.232532,0.261295 -0.389493,0.229441 -0.139054,-0.02822 -0.276727,-0.0023 -0.416635,0.02356 -0.127164,0.02351 -0.329215,0.136243 -0.401211,0.0063 -0.07724,-0.139462 -0.08732,-0.308279 -0.08637,-0.465125 0.003,-0.495427 0.189688,-0.982516 0.09469,-1.480863 -0.05699,-0.298943 -0.306299,-0.501579 -0.542894,-0.667644 -0.272211,-0.191063 -0.598213,-0.38031 -0.696857,-0.721073 -0.150601,-0.520249 -0.236203,-1.058251 -0.284029,-1.596664 -0.03759,-0.42317 -0.132821,-0.863238 -0.0216,-1.276202 0.07841,-0.291153 0.211895,-0.565471 0.351847,-0.831463 0.40454,-0.768866 0.898021,-1.485347 1.301276,-2.256155 0.492785,-0.941942 0.961047,-1.896376 1.416711,-2.856664 0.28443,-0.599421 0.668096,-1.143493 1.060798,-1.675518 0.523723,-0.709529 1.037636,-1.426748 1.579784,-2.122302 0.474619,-0.608917 1.045888,-1.150419 1.435879,-1.817552 0.142821,-0.244315 0.203888,-0.533608 0.401605,-0.747245 0.397729,-0.429755 0.850527,-0.806273 1.321322,-1.151915 0.20567,-0.150996 0.39572,-0.331696 0.627157,-0.440568 0.735166,-0.345836 1.55108,-0.447514 2.306735,-0.739689 1.275457,-0.493157 2.450517,-1.289371 3.788953,-1.570309 0.138704,-0.02911 0.278681,0.0066 0.419508,0.0066 3.786052,-3.88e-4 7.572595,0.05989 11.358159,-5.83e-4 0.680843,-0.01088 1.369966,-0.133339 2.044132,0.02636 0.349686,0.08283 0.717321,0.159404 1.01393,0.374098 0.228994,0.165752 0.273556,0.460485 0.386553,0.700869 0.220451,0.468977 0.639176,0.805878 1.066957,1.076124 0.810599,0.512086 1.818757,0.628958 2.607299,1.16541 0.16505,0.112285 0.27545,0.281634 0.41114,0.425934 0.37794,0.401921 0.74935,0.811432 1.17506,1.165668 1.28293,1.067542 2.77664,1.876913 3.94418,3.080986 0.27574,0.284369 0.56726,0.566896 0.75998,0.913711 0.18827,0.338806 0.12058,0.743365 0.0491,1.105176 -0.0877,0.44386 -0.25314,0.905563 -0.13274,1.35565 0.13516,0.505275 0.5137,0.89216 0.87926,1.244616 0.32477,0.31313 0.6393,0.64147 0.8765,1.029726 0.4788,0.783718 0.82963,1.635143 1.26808,2.441 0.51935,0.954557 1.06088,1.90368 1.43222,2.92916 0.56399,1.557481 0.91022,3.182375 1.22387,4.805305 0.18172,0.940295 0.21841,1.906284 0.45554,2.835457 0.0999,0.39165 0.35092,0.755355 0.35272,1.159301 0.003,0.695368 -0.10026,1.404222 0.0763,2.088253 0.11952,0.463048 0.46312,0.933091 0.32725,1.399968 -0.0528,0.181429 -0.27177,0.217436 -0.36825,0.370248 -0.27818,0.440587 -0.38294,0.969176 -0.71203,1.384706 -0.53224,0.67205 -1.21797,1.224382 -1.65103,1.971153 -0.28162,0.485625 -0.47545,1.013911 -0.73069,1.513506 -0.68814,1.34695 -1.24879,2.771537 -2.11288,4.01692 -0.33471,0.482405 -0.8253,0.817499 -1.24608,1.217721 -0.97723,0.929487 -2.01216,1.799391 -2.95382,2.764872 -0.30995,0.317791 -0.59559,0.670585 -0.9906,0.891931 -0.33027,0.185068 -0.68159,0.351861 -0.93858,0.642152 -0.40944,0.462505 -0.57874,1.165574 -1.13522,1.45828 -0.17037,0.08961 -0.35464,-0.02021 -0.527752,-0.04542 -0.155561,-0.02265 -0.273974,0.09825 -0.392539,0.17734 -0.475423,0.31714 -0.896676,0.719224 -1.207603,1.201076 -0.308042,0.477381 -0.592069,0.973872 -0.96205,1.407262 -0.64113,0.751009 -1.323522,1.468064 -1.932486,2.245434 -0.0316,0.0403 -0.158313,0.17567 -0.08206,0.0505 0.136081,-0.22339 0.360178,-0.42088 0.389619,-0.68307 0.02045,-0.1821 -0.214351,-0.0131 -0.285894,0.0359 -0.673779,0.4616 -1.195789,1.09833 -1.784055,1.65673 -0.22299,0.21167 -0.561271,0.34626 -0.64942,0.66424 -0.116118,0.41887 0.256158,0.88171 0.03717,1.25807 -0.255366,0.43887 -0.580821,0.84202 -0.88469,1.25144 -0.537882,0.72472 -1.110365,1.42393 -1.635644,2.15825 -0.0477,0.0667 -0.08862,0.0824 -0.02353,-0.003 0.171088,-0.22484 0.345844,-0.45858 0.581862,-0.61867 0.167851,-0.11385 0.166176,0.12738 0.139775,0.24001 -0.124997,0.53327 -0.344952,1.0394 -0.572702,1.53502 -0.143547,0.31238 -0.532758,0.41635 -0.700582,0.70058 -0.344401,0.58328 -0.852654,1.08322 -1.04593,1.74436 -0.208135,0.71197 -0.275247,1.45598 -0.32134,2.19319 -0.102226,1.63499 -0.03953,3.27348 -0.04063,4.91014 -7.23e-4,1.07871 0.05324,2.15883 -0.0011,3.23613 -0.01115,0.22114 -0.08825,0.45531 0.02486,0.66873 0.314643,0.59364 0.901915,1.00208 1.158787,1.6303 0.232696,0.56909 0.629701,1.06188 0.810729,1.65176 0.07339,0.23913 -0.0633,0.48152 0.01892,0.7264 0.244552,0.72837 0.624137,1.39948 0.915552,2.10907 0.24638,0.59993 0.44868,1.22563 0.792258,1.77818 0.227325,0.36559 0.674397,0.6213 0.753211,1.04641 0.02309,0.12457 -0.0077,0.24886 -0.01722,0.37487 -0.0163,0.21593 -0.02023,0.43323 0.03078,0.6471 0.078,0.32706 0.160819,0.66425 0.3428,0.94859 0.114055,0.17821 0.378553,0.23526 0.43155,0.44676 0.04816,0.19218 -0.05973,0.38534 -0.176794,0.52732 -0.127368,0.15448 -0.334613,0.35166 -0.534897,0.26673 -0.591843,-0.25097 -1.043804,-0.74679 -1.378719,-1.28268 -0.491092,-0.78578 -0.80495,-1.66321 -1.11476,-2.53134 -0.387267,-1.08517 -0.756001,-2.17929 -1.031305,-3.29913 -0.112286,-0.45674 -0.174929,-0.92518 -0.177506,-1.39609 -0.0033,-0.59799 0.0324,-1.19505 0.03445,-1.79321 0.0031,-0.8916 -0.0064,-1.78335 0.02757,-2.67465 0.04292,-1.12664 0.0908,-2.25948 -0.04991,-3.38228 -0.120922,-0.96492 -0.164767,-1.94973 -0.429707,-2.88645 -0.04278,-0.15125 -0.0017,-0.4659 -0.161564,-0.44734 -0.139754,0.0162 -0.132688,0.25644 -0.147173,0.37524 -0.03318,0.27212 -0.05907,1.09399 -0.05626,0.82002 0.0064,-0.6216 0.04763,-1.24499 0.0045,-1.86501 -0.02468,-0.35436 -0.187589,-0.71233 -0.08521,-1.06508 0.08533,-0.294 0.385869,-0.44544 0.657156,-0.53414 0.366971,-0.11998 0.783878,-0.17838 1.06402,-0.47368 0.459917,-0.4848 0.642609,-1.1468 0.993174,-1.70282 0.392994,-0.62332 0.72797,-1.28004 1.088253,-1.92213 0.260457,-0.46418 0.594527,-0.89341 1.024497,-1.2128 0.604242,-0.44884 1.302329,-0.74537 1.985446,-1.05077 0.508071,-0.22714 1.047522,-0.40361 1.509627,-0.71455 0.129859,-0.0874 0.186205,-0.2607 0.323342,-0.33 0.592755,-0.29953 1.158181,-0.66158 1.781908,-0.89272 0.304767,-0.11294 0.686395,-0.0872 0.923577,-0.31497 0.128017,-0.12295 0.223297,-0.2684 0.391457,-0.35778 0.71413,-0.37957 1.46673,-0.67833 2.22296,-0.96199 0.86044,-0.32275 1.71108,-0.68777 2.49073,-1.17548 0.5843,-0.36551 1.04807,-0.89746 1.64631,-1.24027 0.46088,-0.264094 1.02437,-0.362629 1.4078,-0.747515 0.21054,-0.211342 0.38936,-0.45415 0.63693,-0.62875 0.19053,-0.134372 0.36256,-0.452367 0.58648,-0.383391 0.10629,0.03274 -0.0929,0.212756 -0.15148,0.271703 -0.0986,0.09932 0.0701,-0.07952 0.10192,-0.111734 0.27071,-0.27416 0.52765,-0.563691 0.8185,-0.816446 0.31252,-0.271585 0.71441,-0.487765 0.87755,-0.887102 0.13173,-0.322456 0.0181,-0.66884 -0.026,-0.996118 -0.0354,-0.262786 0.0684,-0.512297 0.14964,-0.75572 0.44977,-1.347605 1.12846,-2.607831 1.52547,-3.975414 0.29064,-1.001159 0.59717,-2.014352 0.63203,-3.064255 0.024,-0.723973 0.006,-1.448419 0.006,-2.172639 3.6e-4,-3.6478 -0.134,-7.298101 5.4e-4,-10.943408 0.007,-0.187226 0.1628,-0.385757 0.0707,-0.557064 -0.0659,-0.122515 -0.21674,-0.163064 -0.33504,-0.220691 -1.27204,-0.619638 -2.72339,-0.752184 -3.98408,-1.396861 -0.49253,-0.251865 -0.96843,-0.580206 -1.28284,-1.041646 -0.34872,-0.511791 -0.43249,-1.146064 -0.46308,-1.750597 -0.0419,-0.827337 0.0388,-1.673615 -0.18103,-2.481388 -0.36713,-1.349279 -1.08781,-2.568314 -1.46746,-3.914504 -0.29089,-1.031472 -0.48614,-2.101662 -0.97205,-3.067474 -0.3497,-0.695078 -0.76481,-1.353654 -1.13686,-2.0369 -0.14736,-0.270618 -0.28681,-0.549612 -0.34514,-0.856539 -0.0508,-0.267511 -0.11329,-0.555039 -0.3323,-0.74546 -0.49015,-0.426174 -1.20876,-0.492612 -1.65165,-0.980452 -0.36155,-0.398245 -0.45817,-0.944445 -0.7127,-1.406053 -0.31142,-0.564772 -0.506987,-1.231133 -1.012348,-1.651184 -0.583027,-0.484606 -1.187469,-0.945605 -1.822761,-1.359186 -0.401948,-0.261672 -0.803094,-0.542121 -1.259988,-0.696178 -0.557271,-0.187902 -1.144392,-0.262529 -1.69735,-0.471145 -0.559474,-0.211074 -1.101817,-0.480621 -1.683636,-0.620061 -0.222317,-0.05328 -0.454761,-0.04642 -0.681859,-0.04105 -0.708434,0.01678 -1.430956,0.136215 -2.129309,-0.04499 -0.660646,-0.171421 -1.260416,-0.559985 -1.9468,-0.624807 -0.54751,-0.05171 -1.100965,0.134221 -1.643845,-0.01584 -0.54868,-0.151661 -1.001889,-0.613442 -1.572227,-0.641246 -0.573343,-0.02795 -1.147975,-0.02331 -1.72183,-0.01684 -0.408663,0.0046 -0.852251,-0.144878 -1.226061,0.02022 -0.834432,0.368541 -1.482296,1.05825 -2.297216,1.453671 -1.321148,0.641056 -2.615322,1.34559 -3.997839,1.852906 -0.90886,0.333507 -1.850835,0.582636 -2.733398,0.982157 -0.166324,0.07529 -0.322451,0.172182 -0.453871,0.302036 -0.185759,0.183545 -0.57923,0.290416 -0.557278,0.550634 0.01147,0.135943 0.06089,0.272638 -0.05733,0.400691 -1.03235,1.118231 -2.108415,2.220567 -3.378105,3.066636 -0.339841,0.226456 -0.796536,0.263614 -1.096434,0.549656 -0.09006,0.0859 -0.03007,0.246673 -0.03387,0.366286 -0.02129,0.670419 -0.151543,1.332484 -0.301331,1.98421 -0.277027,1.205346 -0.712404,2.373524 -0.910244,3.59623 -0.04833,0.298693 -0.02847,0.60732 0.07781,0.89643 0.3301,0.897954 0.720789,1.778129 1.235804,2.58672 0.36326,0.57033 0.717353,1.147658 1.012841,1.757043 0.351382,0.724655 0.659885,1.47265 0.871347,2.250708 0.08997,0.331056 0.214345,0.658205 0.245407,0.99994 0.05195,0.571554 -0.18041,1.127573 -0.121787,1.700577 0.02699,0.263791 0.184469,0.547359 0.447161,0.610879 0.09076,0.02195 0.182126,-0.01349 0.273201,-0.0132"
           id="path913"
           inkscape:path-effect="#path-effect915"
           inkscape:original-d="m 67.235551,59.452239 c 0.49993,0 1.017259,0.130739 1.499793,0 1.167836,-0.316423 2.261907,-0.86088 3.380422,-1.322279 0.996776,-0.411181 1.914904,-1.046937 2.964244,-1.294968 0.815644,-0.192792 1.688494,0.142795 2.514359,0 0.357061,-0.06174 5.762704,-1.463318 6.962844,-2.030019 1.083453,-0.511603 2.068906,-1.209354 3.11273,-1.797603 0.221837,-0.125018 0.436436,-0.279066 0.683265,-0.341637 0.214686,-0.05442 0.442955,0 0.66443,0 0.221477,0 0.442955,0 0.66443,0 1.105003,0 2.210006,0 3.315009,0 0.632703,0 1.361205,-0.33473 1.89811,0 1.805152,1.125405 3.200625,2.803075 4.816729,4.186303 0.277797,0.237765 4.108174,3.364937 4.144904,3.405201 0.77537,0.850024 1.36087,1.85657 1.99689,2.815328 2.47746,3.734601 -0.0995,0.26929 2.64489,5.745062 0.59728,1.191733 1.39114,2.275027 2.12713,3.386465 0.33238,0.501936 0.87888,0.881708 1.07595,1.450549 0.29184,0.842394 0.17631,1.776812 0.34539,2.652144 0.54502,2.821479 0.2332,-0.841716 1.07524,2.587164 0.45548,1.854759 -0.78557,1.374773 0,3.683805 0.30398,0.893487 1.26717,1.455793 1.59029,2.342536 0.23072,0.633169 0,1.34779 0,2.021686 0,2.246376 0,4.492752 0,6.739128 0,0.33941 0.18135,0.73133 0,1.018231 -0.47073,0.744701 -1.46237,1.100471 -1.8418,1.895575 -0.39355,0.824685 -0.0725,1.850165 -0.35967,2.717636 -0.11963,0.361331 -0.60604,0.484439 -0.80742,0.807424 -0.88414,1.41797 0.003,0.63879 -0.35744,2.00902 -0.0407,0.15445 -0.28995,0.18674 -0.33879,0.33879 -0.1816,0.56542 0.006,1.26229 -0.33221,1.75036 -0.52952,0.76383 -1.99783,0.65496 -2.696,1.00241 -1.84792,0.91964 0.24349,0.3385 -1.00891,1.34803 -1.03815,0.83682 -3.38773,1.219 -4.2912,1.72709 -0.57648,0.32419 -0.90704,0.96505 -1.39975,1.40628 -0.55595,0.49787 -1.16979,0.92736 -1.741629,1.40691 -0.239999,0.20125 -0.388742,0.51577 -0.66443,0.66443 -0.575662,0.31041 -1.236139,0.45766 -1.786853,0.81044 -0.0938,0.0601 0.02714,0.22615 0,0.3342 -0.08468,0.33716 -0.11938,0.7137 -0.332213,0.98855 -0.239284,0.30902 -0.612804,0.49245 -0.95739,0.67687 -0.09032,0.0483 -0.254884,-0.088 -0.307335,0 -0.925179,1.55226 0.412317,0.62887 -0.990946,2.0632 -0.179443,0.18341 -0.494607,0.18657 -0.676209,0.36785 -0.07246,0.0723 0,0.20476 0,0.30715 0,0.32853 0.1284,0.68319 0,0.98558 -0.134001,0.31559 -0.57204,0.42163 -0.727308,0.72731 -0.10636,0.20939 0,0.46971 0,0.70457 0,0.79237 0,1.58474 0,2.37712 0,1.10767 0,2.21535 0,3.32303 0,0.17802 0,0.35605 0,0.53408 0,0.20981 0.208587,0.60676 0,0.62945 -0.221181,0.0241 -0.255283,-0.37874 -0.298495,-0.59699 -0.157744,-0.79669 -0.244792,-1.60773 -0.298495,-2.41811 -0.255008,-3.84813 0.549894,-0.67663 -0.735234,-3.17413 -0.052,-0.10105 0,-0.2273 0,-0.34095 0,-0.55952 0,-1.11904 0,-1.67855 0,-0.71599 0,-1.43198 0,-2.14796 0,-0.60666 -0.217716,-1.25374 0,-1.81999 0.286326,-0.7447 0.938334,-1.29133 1.43602,-1.91493 0.134385,-0.16839 0.392388,-0.2515 0.456999,-0.45702 0.09963,-0.31692 -0.131953,-0.69176 0,-0.99665 0.777494,-1.79644 0.694386,-1.04581 1.71073,-1.73071 0.478798,-0.32265 0.860062,-0.79544 1.379572,-1.04736 0.999262,-1.75775 2.583762,-0.39454 3.814286,-0.81403 0.31276,-0.10662 0.43052,-0.51111 0.70097,-0.70097 0.42203,-0.29628 0.96242,-0.41099 1.35655,-0.74348 0.31604,-0.2666 0.52413,-0.64572 0.72117,-1.00922 0.051,-0.0941 -0.0843,-0.25516 0,-0.32117 0.84425,-0.554 1.6885,-1.10801 2.53275,-1.66201 0.11265,-0.22493 0.15988,-0.49708 0.33793,-0.67477 0.28563,-0.28506 0.72052,-0.38687 1.00877,-0.66926 1.91163,-1.872721 -0.76468,-0.17595 1.57616,-2.908874 0.94087,-1.098466 2.24568,-1.836608 3.23493,-2.891713 0.90823,-0.968685 1.69747,-2.048714 2.43342,-3.153971 0.19639,-0.294942 0.19604,-0.683189 0.33785,-1.00792 2.10331,-4.816327 -0.33864,1.334061 1.0265,-2.371886 0.21143,-0.573979 0.55399,-1.107528 0.67128,-1.707862 0.11045,-0.565354 0,-1.152086 0,-1.728129 0,-1.372692 0,-2.745382 0,-4.118072 0,-0.926087 0.37151,-1.929964 0,-2.778263 -0.51745,-1.18151 -1.82174,-1.854732 -2.50749,-2.947191 -0.18563,-0.295722 0.14974,-0.732049 0,-1.047467 -0.40863,-0.860758 -1.10008,-1.556771 -1.61646,-2.357541 -0.26437,-0.409956 -3.22635,-5.231555 -3.43231,-5.777939 -0.60802,-1.612926 -0.71812,-3.384817 -1.32169,-4.999413 -0.21301,-0.569817 -0.81515,-0.920213 -1.09342,-1.461164 -0.10131,-0.196948 0.0863,-0.460438 0,-0.664429 -0.16257,-0.384496 -0.4796,-0.683424 -0.71549,-1.027833 -0.65141,-0.951076 -1.569,-2.416595 -2.34132,-3.11215 -0.28627,-0.257818 -0.79063,-0.153641 -1.08239,-0.405231 -1.35116,-1.165132 -1.39115,-2.227395 -2.887234,-3.185678 -0.209674,-0.134306 -0.528648,0.119686 -0.746995,0 -0.660099,-0.361834 -1.155013,-0.970746 -1.782512,-1.386552 -0.881345,-0.584017 -3.172153,-1.246944 -3.643008,-2.107655 -0.108484,-0.198308 0.101066,-0.475938 0,-0.678127 -0.05052,-0.101066 -0.225978,0 -0.338965,0 -1.086668,0 -2.173336,0 -3.26,0 -0.442953,0 -0.885907,0 -1.32886,0 -0.221477,0 -0.48464,-0.129336 -0.664429,0 -0.674928,0.485524 -1.099701,1.266793 -1.77355,1.753814 -0.176429,0.127514 -0.435369,0 -0.653052,0 -0.436039,0 -0.872078,0 -1.308116,0 -0.438338,0 -1.203701,-0.07728 -1.593575,0 -0.724771,0.143672 -1.381948,0.544111 -2.105925,0.691743 -0.217011,0.04425 -0.475194,-0.115073 -0.664429,0 -0.415248,0.25251 -0.6873,0.687308 -1.030952,1.030957 -0.116808,0.116805 -0.194283,0.296495 -0.350425,0.350409 -0.216683,0.07482 -1.218408,-0.08195 -1.328859,0 -0.783688,0.581474 -1.397598,1.3623 -2.093558,2.046348 -0.22397,0.220136 -0.491881,0.404953 -0.666191,0.666178 -0.06146,0.0921 0.05854,0.238197 0,0.332185 -0.311246,0.499684 -0.718786,0.932516 -1.078178,1.398773 -0.454228,0.858451 -0.866661,1.740355 -1.36268,2.575353 -2.590049,4.360077 -1.390134,0.844653 -1.704224,4.276577 -0.07491,0.818486 -0.41443,2.535888 -0.682334,3.424301 -0.239982,0.795822 -0.616976,1.552212 -0.789903,2.365245 -0.09352,0.439687 0,0.899046 0,1.348568 0,0.226296 0.0674,0.46286 0,0.678887 -0.04321,0.138525 -0.178072,0.242845 -0.307821,0.307821 -0.09146,0.0458 -0.204566,0 -0.306848,0 -0.222708,0 -0.598088,0.21141 -0.668121,0 -0.211407,-0.63818 0.230664,-1.385382 0,-2.016858 -0.18483,-0.506002 -0.900348,-0.657587 -1.151072,-1.134385 -0.196075,-0.372874 -0.520568,-2.584368 -0.332214,-3.107965 0.351341,-0.976667 1.014585,-1.811414 1.494155,-2.731921 2.332802,-4.477678 1.009791,-2.640354 3.966644,-6.617631 0.519909,-0.699328 1.11251,-1.343364 1.620663,-2.05128 0.145243,-0.20234 0.192723,-0.462958 0.332216,-0.669306 0.320892,-0.474692 1.847268,-1.627129 2.024028,-1.713262 0.686888,-0.334706 1.469784,-0.424616 2.184133,-0.695817 1.32329,-0.502383 2.601124,-1.119346 3.9239,-1.623081 0.10536,-0.04012 0.225478,0 0.338217,0 0.326086,0 0.652169,0 0.978255,0 0.577516,0 1.155033,0 1.73255,0 1.634482,0 3.268966,0 4.903451,0 1.255654,0 2.511306,0 3.76696,0 0.666443,0 1.346187,-0.13248 1.999329,0 2.168412,0.43983 0.713658,0.87925 2.454466,2.086816 0.818131,0.567524 1.832726,0.783503 2.717213,1.240788 0.14221,0.07352 0.22752,0.225287 0.33959,0.339606 0.34945,0.356449 0.66909,0.744185 1.04494,1.072676 1.5997,1.398116 3.63275,2.381313 4.87724,4.103235 0.51646,0.714592 -0.28915,1.812137 0,2.645063 0.27989,0.806276 1.13989,1.278642 1.60949,1.991313 0.46638,0.707792 0.79174,1.499028 1.18512,2.24985 0.44326,0.846037 0.93694,1.667888 1.3248,2.540711 0.73028,1.643391 1.18741,3.822176 1.51952,5.507398 0.173,0.877824 0.23395,1.775465 0.41128,2.652426 0.0966,0.477806 0.27264,0.936056 0.40896,1.404086 0,0.56715 -0.0661,1.138171 0,1.701453 0.07,0.59644 0.39245,1.154914 0.40586,1.755302 0.004,0.174606 -0.26226,0.236471 -0.35811,0.382471 -0.26843,0.408863 -0.3567,0.925115 -0.65393,1.31355 -0.4956,0.647682 -1.12627,1.188397 -1.5917,1.858092 -0.32724,0.47085 -0.50569,1.029367 -0.76904,1.538714 -0.71381,1.380606 -1.33578,2.814727 -2.16232,4.130947 -0.29093,0.463291 -0.76455,0.782992 -1.1605,1.160492 -0.98936,0.943279 -2.0033,1.860534 -2.99496,2.801397 -0.26794,0.254215 -0.49336,0.554951 -0.78349,0.783506 -0.34609,0.272629 -0.7979,0.404378 -1.11401,0.71126 -0.47777,0.463826 -0.71662,1.152467 -1.23557,1.569715 -0.18619,0.149707 -0.5145,-0.127204 -0.716738,0 -1.535798,0.966018 -1.399011,1.599869 -2.516449,2.902744 -4.109218,4.791126 -0.0029,0.02016 -2.170266,1.792106 -0.496621,0.40602 -0.920504,0.89366 -1.377948,1.34335 -0.223361,0.21958 -0.566576,0.3669 -0.664429,0.66443 -0.141198,0.42931 0.196889,0.94902 0,1.35581 -5.47134,7.56898 -0.09946,-0.63433 -2.364031,4.48531 -0.133596,0.30202 -0.467056,0.46705 -0.700582,0.70058 -0.35337,0.59699 -0.865773,1.12501 -1.060112,1.79096 -0.493733,1.69192 -0.347787,5.30746 -0.347787,6.87766 0,1.12447 0,2.24895 0,3.37342 0,0.22148 -0.09905,0.46634 0,0.66443 0.247619,0.49524 0.689512,0.86816 0.996643,1.32886 0.137356,0.20603 0.221745,0.44282 0.332217,0.66443 0.221742,0.44482 0.507928,0.86311 0.664429,1.33485 0.0701,0.21132 -0.0672,0.45567 0,0.66793 0.197922,0.62512 0.522515,1.20283 0.782847,1.80464 0.289507,0.66926 0.523308,1.36529 0.866669,2.00859 0.220464,0.41304 0.587105,0.73486 0.815734,1.14345 0.05117,0.0914 0,0.20957 0,0.31435 0,0.2042 -0.04087,0.41253 0,0.6126 0.07116,0.3483 0.174826,0.69466 0.332216,1.01341 0.185105,0.37488 0.750763,0.33033 0.332214,0.98538 -0.123053,0.19259 -0.405749,0.40241 -0.613252,0.30662 -1.089186,-0.5028 -1.668695,-1.76285 -2.070155,-2.7777 -0.34667,-0.87633 -1.413571,-3.79167 -1.557949,-5.09827 -0.07861,-0.71144 0,-1.43154 0,-2.14731 0,-0.57867 0,-1.15734 0,-1.73602 0,-1.46498 0.169159,-2.93976 0,-4.39495 -0.961818,-8.2741 -0.808048,1.32386 -0.808048,-4.0869 0,-0.45146 -0.268946,-0.99176 0,-1.35436 0.348303,-0.46959 1.154012,-0.36536 1.575829,-0.7702 0.485622,-0.46608 0.678739,-1.16276 1.033913,-1.73451 1.27313,-2.04947 1.201049,-2.74598 2.906535,-3.64169 0.868487,-0.45613 1.797693,-0.79029 2.664206,-1.25016 0.145301,-0.0771 0.232629,-0.23262 0.348943,-0.34894 0.56212,-0.28584 1.109874,-0.6019 1.686359,-0.85753 0.320124,-0.14196 0.683429,-0.17561 0.996645,-0.33222 0.140077,-0.07 0.193927,-0.25871 0.332217,-0.33221 1.86465,-0.99104 2.66652,-0.97582 4.66968,-2.10367 0.59939,-0.33747 1.08175,-0.85172 1.65023,-1.23901 0.43987,-0.299679 0.99501,-0.408166 1.42266,-0.725047 0.25165,-0.186476 0.41385,-0.476501 0.66442,-0.66443 1.89224,-1.41918 -0.70936,1.040609 1.32886,-0.996645 0.33659,-0.336421 0.82288,-0.571511 1.00991,-1.009103 0.17735,-0.414962 -0.1247,-0.920117 0,-1.35382 0.40976,-1.425173 1.15791,-2.736768 1.58447,-4.157003 0.81277,-2.70619 0.70255,-2.890721 0.70255,-5.118539 0,-3.285395 0,-6.570793 0,-9.856187 0,-0.467019 0,-0.934038 0,-1.401056 0,-0.220065 0.19173,-0.552175 0,-0.660191 -1.70044,-0.957993 -4.04786,-0.913181 -5.35897,-2.358941 -1.01309,-1.117123 -0.42224,-2.994268 -0.8159,-4.450064 -0.31367,-1.159996 -0.90924,-2.226201 -1.29699,-3.363581 -0.34515,-1.012458 -0.50404,-2.086526 -0.89982,-3.080287 -0.33334,-0.836991 -0.85444,-1.5864 -1.27587,-2.382684 -0.12103,-0.228685 -0.25279,-0.452904 -0.35144,-0.692098 -0.13992,-0.339283 -0.10321,-0.780028 -0.36271,-1.03955 -0.46289,-0.462918 -1.22111,-0.546804 -1.68521,-1.008515 -0.36498,-0.363114 -0.45454,-0.924576 -0.70818,-1.372608 -0.32715,-0.577869 -0.563835,-1.233506 -1.033145,-1.7033 -0.123576,-0.123703 -2.176063,-1.760331 -3.099892,-2.071307 -0.454467,-0.152982 -0.935302,-0.216021 -1.393259,-0.358211 -0.184039,-0.05714 -1.85928,-0.732364 -2.087697,-0.7557 -0.797526,-0.08148 -1.611996,0.117401 -2.405029,0 -0.735406,-0.108868 -1.395097,-0.540301 -2.126953,-0.670918 -0.535623,-0.09559 -1.098952,0.107763 -1.63226,0 -0.593513,-0.119927 -1.100584,-0.52434 -1.688084,-0.670922 -0.151675,-0.03784 -2.927458,-0.0186 -2.969635,0 -0.829236,0.365403 -1.531477,0.969113 -2.297216,1.453671 -1.046485,0.506061 -2.068454,1.066311 -3.139456,1.518179 -1.06567,0.449623 -2.182527,0.767668 -3.262127,1.182735 -0.234992,0.09034 -0.475536,0.182981 -0.678299,0.332214 -0.220835,0.218202 -0.441669,0.436404 -0.662504,0.654605 0,0.112774 0.07623,0.255212 0,0.338318 -0.814321,0.887812 -1.670865,1.744747 -2.6066,2.503514 -2.993883,2.427679 -1.462554,-0.32901 -2.183363,3.17356 -0.258371,1.255477 -0.696495,2.46982 -0.947756,3.726739 -0.06628,0.33156 -0.116309,0.696872 0,1.014357 1.094142,2.986706 1.57557,2.671918 2.705814,5.381945 0.296725,0.711464 0.507217,1.459121 0.679778,2.210421 0.167193,0.727925 -0.535977,1.982531 0.307925,2.403954 0.09205,0.04597 0.205782,0 0.308673,0" /><path
           style="fill:none;stroke:#208dd4;stroke-width:5;stroke-linecap:butt;stroke-linejoin:miter;stroke-dasharray:none;stroke-opacity:1"
           d="m 91.200982,156.11358 c -0.0383,0.006 -0.145429,-0.0453 -0.124642,0 0.01794,0.0391 0.08622,0.0486 0.112035,0.022 0.03322,-0.0342 -0.01796,-0.0913 -0.03632,-0.12783 -0.241242,-0.47995 -0.630134,-0.8663 -0.875219,-1.34394 -0.117097,-0.22821 -0.192608,-0.48911 -0.152528,-0.74651 0.08293,-0.53256 0.330125,-1.02561 0.638343,-1.46244 0.382891,-0.54266 0.84186,-1.02716 1.326062,-1.47871 0.196136,-0.18291 0.45525,-0.27441 0.708667,-0.34651 0.309137,-0.088 0.634272,-0.14504 0.914119,-0.31047 0.07222,-0.0427 0.146706,-0.0898 0.187899,-0.16643 0.09405,-0.17503 0.06855,-0.39175 0.17217,-0.56157 0.02774,-0.0455 0.06243,-0.10205 0.116536,-0.10956 0.135652,-0.0188 0.273264,-0.0178 0.409947,-0.0189 0.735798,-0.006 1.471412,0.0291 2.207131,0.0239 0.771622,-0.005 1.522827,-0.2301 2.294329,-0.23763 0.376868,-0.004 0.761655,0.0593 1.097825,0.23765 0.75534,0.40065 1.42956,0.94768 1.99168,1.5914 0.68355,0.78278 1.19634,1.69444 1.66935,2.61479 0.24184,0.47056 0.46506,0.95065 0.71344,1.41779 0.20911,0.39329 0.45284,0.77114 0.60084,1.19463 0.0742,0.21229 0.0862,0.44015 0.0742,0.66308 -0.0146,0.27109 -0.0498,0.54087 -0.0497,0.81294 1.7e-4,0.87005 -0.0419,1.74112 2.5e-4,2.61014 0.004,0.0841 0.0725,0.17126 0.0352,0.24921 -0.0404,0.0842 -0.14729,0.11022 -0.22486,0.15342 -0.31774,0.17697 -0.62745,0.37173 -0.96142,0.51637 -0.10522,0.0456 -0.21449,0.10606 -0.33165,0.0956 -0.0902,-0.008 -0.17306,-0.0485 -0.26211,-0.0638 -0.23832,-0.0408 -0.48181,-0.013 -0.71937,0.0187 -0.72097,0.0961 -1.43103,0.25902 -2.15257,0.3523 -0.844059,0.10912 -1.687802,0.22593 -2.536516,0.29334 -0.87873,0.0698 -1.760924,0.0423 -2.641186,0.0322 -1.217274,-0.014 -2.434628,-0.0102 -3.651952,-0.0101 -1.049996,1.3e-4 -2.100376,-0.028 -3.149989,1.9e-4 -0.09779,0.003 -0.200268,0.0616 -0.292756,0.0189 -0.05827,-0.0269 -0.107139,-0.0705 -0.158173,-0.10892 -0.652265,-0.49114 -1.179506,-1.13938 -1.861857,-1.58666 -0.364897,-0.23919 -0.740962,-0.46556 -1.074012,-0.74844 -0.103371,-0.0878 -0.211892,-0.1752 -0.285597,-0.29057 -0.05574,-0.0873 -0.01426,-0.19248 -0.01052,-0.2874 0.0042,-0.10708 0.002,-0.2144 0.002,-0.32158 -2.48e-4,-0.60811 0.01285,-1.21636 -3.75e-4,-1.82431 -0.01004,-0.46147 -0.15639,-0.90977 -0.147716,-1.37253 0.004,-0.21277 0.05928,-0.42499 0.170189,-0.6088 0.310757,-0.51501 0.7528,-0.93343 1.210418,-1.31696 0.483882,-0.40554 1.015914,-0.75914 1.449989,-1.21905 0.09043,-0.0958 0.146152,-0.23369 0.270785,-0.28929 0.144793,-0.0646 0.308574,-0.0475 0.460642,-0.0272 0.144549,0.0193 0.29043,0.0129 0.435723,0.0212 0.384944,0.0222 0.772329,0.087 1.157303,0.0324 0.258363,-0.0366 0.504666,-0.13167 0.739421,-0.24239 0.527389,-0.24873 1.005311,-0.60023 1.559752,-0.7906 0.443894,-0.15241 0.901251,-0.26206 1.359818,-0.3596 0.673202,-0.14319 1.350801,-0.27502 2.036314,-0.33953 0.244309,-0.023 0.491308,-0.0547 0.736088,-0.0279 0.257403,0.0281 0.48712,0.16645 0.684225,0.32725 0.314215,0.25634 0.572174,0.5816 0.921185,0.79426 0.229401,0.13978 0.493544,0.20939 0.755847,0.25555 0.4826,0.0849 0.983755,0.0771 1.451438,0.23434 0.1997,0.0671 0.39472,0.14745 0.59064,0.22473 0.67029,0.26439 1.34398,0.52761 1.97821,0.87226 0.48341,0.26269 0.92752,0.59363 1.33032,0.96808 0.4027,0.37436 0.76363,0.78999 1.12635,1.20229 0.28328,0.322 0.58209,0.6305 0.85516,0.96131 0.14889,0.18037 0.29369,0.37796 0.34081,0.61209 0.047,0.23348 0.0329,0.47349 0.0222,0.7096 -0.0216,0.4747 -0.0333,0.94984 -0.0319,1.42506 5.2e-4,0.17564 -0.008,0.35152 8.4e-4,0.52693 0.008,0.1681 0.0699,0.331 0.0543,0.50111 -0.008,0.0887 -0.0679,0.1581 -0.12187,0.22424 -0.1909,0.23389 -0.44651,0.41201 -0.73002,0.51566 -0.40553,0.14826 -0.84125,0.16587 -1.26323,0.23832 -0.23077,0.0396 -0.4657,0.0819 -0.67832,0.18168 -0.3091,0.14508 -0.51268,0.44372 -0.8207,0.59012 -0.12996,0.0618 -0.27445,0.0825 -0.41596,0.0978 -0.5056,0.0549 -1.01075,-0.0403 -1.51631,-0.0436 -0.969263,-0.006 -1.942733,0.0333 -2.907581,-0.0843 -0.79958,-0.0974 -1.579096,-0.32181 -2.32725,-0.61682 -0.21866,-0.0862 -0.420355,-0.32694 -0.649453,-0.27444 -0.372738,0.0854 -0.76992,0.12754 -1.143441,0.0208 -0.274741,-0.0785 -0.512378,-0.25996 -0.679736,-0.48966 -0.237132,-0.32547 -0.362938,-0.71348 -0.488327,-1.09168 -0.129647,-0.39104 -0.24276,-0.7963 -0.469995,-1.14424 -0.118438,-0.18135 -0.266224,-0.35889 -0.466039,-0.44773 -0.146369,-0.0651 -0.311052,-0.0352 -0.462477,-0.007 -0.170061,0.0316 -0.348444,0.0774 -0.519606,0.0273 -0.414685,-0.12142 -0.791091,-0.3416 -1.151174,-0.57449 -0.143542,-0.0928 -0.299345,-0.17193 -0.417751,-0.29864 -0.08488,-0.0908 -0.114102,-0.21814 -0.114734,-0.3394 -8.85e-4,-0.16993 0.0313,-0.33769 0.03117,-0.50793 -1.55e-4,-0.20869 0.0078,-0.41753 -2.33e-4,-0.62607 -0.0035,-0.09 -0.06397,-0.18096 -0.03028,-0.26769 0.02358,-0.0607 0.08597,-0.0938 0.136552,-0.12963 0.340538,-0.24134 0.751416,-0.35861 1.085902,-0.61164 0.30457,-0.2304 0.569928,-0.50744 0.815495,-0.79883 0.229662,-0.27252 0.462297,-0.54806 0.752296,-0.75958 0.371766,-0.27116 0.807888,-0.44334 1.252373,-0.54929 0.391004,-0.0932 0.796887,-0.0661 1.193329,-0.0311 0.283413,0.025 0.567364,0.047 0.852223,0.0467 0.471031,-3.8e-4 0.942116,0.006 1.413096,-6.3e-4 0.901898,-0.0129 1.794376,-0.20669 2.697824,-0.16878 0.363876,0.0153 0.733114,0.0585 1.073414,0.19147 0.26216,0.10241 0.46743,0.30639 0.64232,0.52088 0.25388,0.31137 0.4556,0.66937 0.75994,0.93622 0.6358,0.55747 1.37186,0.98582 2.0087,1.54224 0.37821,0.33045 0.74446,0.68076 1.04209,1.08656 0.16545,0.22558 0.31999,0.46868 0.38849,0.74296 0.0425,0.17001 0.034,0.35998 -0.0606,0.51243 -0.23424,0.37745 -0.52923,0.7281 -0.91039,0.96472 -0.37591,0.23336 -0.80998,0.34173 -1.23369,0.45135 -0.46111,0.1193 -0.91636,0.26295 -1.35602,0.44775 -0.73302,0.30811 -1.45479,0.64442 -2.1521,1.0271 -0.409226,0.22458 -0.819896,0.44806 -1.24908,0.63296 -0.414529,0.17859 -0.825321,0.38454 -1.267144,0.47603 -0.113921,0.0236 -0.226925,-0.0294 -0.342375,5.2e-4 -0.350975,0.091 -0.689955,0.22058 -1.029619,0.34585 -0.25108,0.0926 -0.474185,0.255 -0.73863,0.31277 -0.100119,0.0219 -0.202772,0.009 -0.30308,-0.007 -0.957797,-0.15634 -1.922728,-0.31968 -2.835818,-0.65837 -0.398277,-0.14773 -0.789412,-0.32197 -1.147262,-0.55192 -0.512022,-0.32902 -0.912659,-0.80946 -1.200263,-1.34199 -0.380033,-0.70367 -0.588826,-1.48323 -0.757461,-2.26046 -0.167762,-0.77321 -0.270899,-1.56063 -0.476907,-2.32508 -0.05843,-0.21681 -0.113909,-0.43647 -0.205596,-0.64182 -0.131857,-0.29532 -0.359363,-0.53145 -0.575973,-0.76597 -0.182146,-0.19721 -0.474339,-0.37008 -0.48858,-0.64018 -0.008,-0.15158 -0.0056,-0.30369 -0.0057,-0.4555 -5.52e-4,-0.51256 0.02833,-1.02566 0.0053,-1.53768 -0.0075,-0.16751 -0.08055,-0.32715 -0.06835,-0.4964 0.0051,-0.0709 0.04954,-0.12928 0.100521,-0.17735 0.296341,-0.27941 0.589265,-0.56493 0.916193,-0.80895 0.197323,-0.14728 0.41901,-0.27142 0.66396,-0.31573 0.265353,-0.048 0.536491,-0.0383 0.804622,-0.0328 0.211061,0.004 0.422111,-0.004 0.632445,-0.0226 0.413952,-0.0365 0.83058,-0.0976 1.246739,-0.0494 0.188391,0.0218 0.368308,0.0852 0.547181,0.14518 1.187031,0.39825 2.360465,0.87111 3.417525,1.55103 0.912058,0.58665 1.711694,1.32372 2.543077,2.01492 0.864091,0.71839 1.746783,1.42135 2.701994,2.01327 0.32596,0.20199 0.70261,0.29303 1.06577,0.40301 0.29903,0.0906 0.68996,0.11719 0.85229,0.388 0.0245,0.0408 0.023,0.0921 0.0245,0.13838 0.009,0.27977 -0.004,0.55966 -0.0165,0.83912 -0.007,0.16049 -0.0118,0.32144 0.005,0.48173 0.035,0.32503 0.126,0.64499 0.11676,0.97402 -0.005,0.17413 -0.0555,0.34657 -0.15112,0.49407 -0.31571,0.48723 -0.77296,0.86333 -1.25822,1.17297 -0.7689,0.49063 -1.62272,0.82871 -2.396967,1.30977 -0.244364,0.15183 -0.479145,0.32103 -0.686391,0.52168 -0.395203,0.38263 -0.701334,0.85893 -1.149451,1.18318 -0.07922,0.0573 -0.15495,0.12981 -0.255274,0.14619 -0.165722,0.0271 -0.327607,-0.0365 -0.49187,-0.0463 -0.100476,-0.006 -0.201266,-0.003 -0.301895,-0.003 -1.408188,1.2e-4 -2.816757,-0.0324 -4.224564,1.9e-4 -0.109332,0.003 -0.223664,0.061 -0.328249,0.0168 -0.06335,-0.0268 -0.119684,-0.0679 -0.177534,-0.1047 -0.667144,-0.42488 -1.276791,-0.93047 -1.908414,-1.40466 -0.497618,-0.37359 -1.001358,-0.73946 -1.486758,-1.12902 -0.477608,-0.38331 -0.898906,-0.82942 -1.329506,-1.26311 -0.409941,-0.41288 -0.810594,-0.83561 -1.236523,-1.23197 -0.216287,-0.20127 -0.467426,-0.37307 -0.631217,-0.62399 -0.147605,-0.22612 -0.185097,-0.4989 -0.25926,-0.75341 -0.03585,-0.12302 -0.06816,-0.25232 -0.143701,-0.35704 -0.113633,-0.15751 -0.295607,-0.23982 -0.442161,-0.36101 -0.08326,-0.0688 -0.146819,-0.1628 -0.167509,-0.27079 -0.04088,-0.21335 0.01741,-0.42747 0.01466,-0.64202 -0.0047,-0.36535 -0.02446,-0.73653 0.05765,-1.0951 0.03979,-0.17375 0.09757,-0.36081 0.239573,-0.47581 0.09479,-0.0768 0.198339,-0.14229 0.301399,-0.20726 0.686444,-0.43275 1.447134,-0.72867 2.21063,-0.99304 0.197334,-0.0683 0.391594,-0.14607 0.591572,-0.20634 0.618691,-0.18645 1.273557,-0.2002 1.89298,-0.38581 0.878943,-0.26338 1.720471,-0.63347 2.591406,-0.9208 0.968269,-0.31944 1.949446,-0.59825 2.918445,-0.91522 0.73931,-0.24184 1.455976,-0.55878 2.219538,-0.72252 0.464831,-0.0997 0.94303,-0.10986 1.416443,-0.093 0.482099,0.0171 0.963593,0.052 1.44633,0.0517 0.431627,-3.1e-4 0.8634,0.0107 1.29488,-4.7e-4 0.32716,-0.008 0.64654,-0.10925 0.97523,-0.0931 0.14566,0.007 0.28676,0.0547 0.41199,0.1299 0.3253,0.19531 0.57287,0.48979 0.8107,0.7797 0.24619,0.3001 0.4737,0.63728 0.81138,0.83624 0.0847,0.0499 0.18608,0.0224 0.27483,-2.7e-4 0.0996,-0.0254 0.20242,-0.0736 0.30587,-0.0479 0.0726,0.0181 0.11852,0.0841 0.15532,0.14382 0.11267,0.18293 0.13713,0.40096 0.17339,0.60808 0.0222,0.1271 0.0607,0.25051 0.10978,0.37001 0.11929,0.29044 0.2675,0.57139 0.46797,0.81518 0.24845,0.30214 0.5485,0.56312 0.75548,0.8984 0.084,0.13612 0.13776,0.28792 0.17896,0.44223 0.13789,0.51649 0.22564,1.06007 0.14205,1.59376 -0.0603,0.385 -0.23352,0.7469 -0.47709,1.04963 -0.32883,0.4087 -0.74683,0.73205 -1.15976,1.05022 -0.5745,0.44266 -1.14348,0.89665 -1.64909,1.4186 -0.11142,0.11502 -0.21872,0.23357 -0.31657,0.36075 -0.80806,1.05032 -1.25197,2.53288 -2.42419,3.15096 -0.424848,0.22401 -0.902744,0.33823 -1.306918,0.6021 -0.125845,0.0822 -0.252145,0.17157 -0.342723,0.29226 -0.115289,0.15362 -0.134662,0.35193 -0.152662,0.53696 -0.01944,0.19988 -0.02658,0.41275 -0.133938,0.58873 -0.106207,0.1741 -0.290927,0.28266 -0.478362,0.34896 -0.142404,0.0504 -0.288811,0.0951 -0.439669,0.10933 -0.321762,0.0305 -0.642066,-0.0402 -0.964374,-0.0213 -0.44459,0.026 -0.880311,0.15002 -1.327606,0.13835 -0.216204,-0.006 -0.430786,-0.0603 -0.622121,-0.16421 -0.912654,-0.49573 -1.716234,-1.16249 -2.497153,-1.84084 -0.686473,-0.59631 -1.365154,-1.20406 -2.099977,-1.74154 -1.158673,-0.8475 -2.328123,-1.68176 -3.535219,-2.4596 -0.299275,-0.19285 -0.60681,-0.37237 -0.908326,-0.56159 -0.136926,-0.0859 -0.262617,-0.19131 -0.360182,-0.32112 -0.173044,-0.23023 -0.326346,-0.47443 -0.488943,-0.71201 -0.581054,-0.84901 -1.166293,-1.69876 -1.830254,-2.48436 -0.180366,-0.21341 -0.454873,-0.33265 -0.608164,-0.56953 -0.07117,-0.10998 -0.121494,-0.23427 -0.147023,-0.36278 -0.02523,-0.127 -8.38e-4,-0.26812 0.0878,-0.36659 0.113304,-0.12588 0.27978,-0.18461 0.439408,-0.22558 0.298167,-0.0765 0.610561,-0.0756 0.908736,-0.14925 0.07953,-0.0197 0.165418,-0.0384 0.224313,-0.10182 0.07529,-0.0811 0.106017,-0.20926 0.21055,-0.25656 0.06486,-0.0293 0.137452,-0.0375 0.207629,-0.0441 0.295196,-0.0278 0.588876,0.0285 0.884217,0.0285 2.045027,-1.2e-4 4.090204,0.0244 6.135082,-1.9e-4 0.505014,-0.006 1.002269,-0.13771 1.508707,-0.10916 0.236814,0.0134 0.471069,0.0766 0.679182,0.19201 0.327979,0.1819 0.584989,0.46209 0.830294,0.74017 0.226968,0.25729 0.456634,0.51413 0.72312,0.73261 0.451007,0.36976 0.90459,0.74177 1.415956,1.02873 0.06294,0.0353 0.130645,0.0642 0.204845,0.0647 0.16228,0.001 0.321826,-0.0884 0.482018,-0.0457 0.09681,0.0258 0.184894,0.0766 0.270325,0.12747 0.312793,0.18639 0.607088,0.40345 0.882744,0.64079 0.193563,0.16666 0.367054,0.35452 0.543039,0.54081 0.02971,0.0315 0.0401,0.0694 0.04145,0.11356 0.0077,0.25101 -0.02211,0.50336 0.0017,0.75338 0.006,0.0628 -0.03589,0.11321 -0.0678,0.16265 -0.09113,0.14121 -0.231,0.25542 -0.397374,0.29323 -0.206578,0.047 -0.41817,-0.002 -0.62093,-0.0451 -0.201199,-0.0428 -0.408305,-0.0956 -0.615148,-0.0611 -0.117705,0.0196 -0.224644,0.0825 -0.30558,0.17039 -0.141239,0.15334 -0.223487,0.35427 -0.383905,0.49139 -0.06378,0.0545 -0.145869,0.0771 -0.226433,0.0944 -0.411689,0.0882 -0.835809,0.0551 -1.251496,0.02 -0.244007,-0.0206 -0.488681,-0.0292 -0.733492,-0.0389 -0.188549,-0.008 -0.380068,-0.0727 -0.566056,-0.0216 -0.104165,0.0286 -0.202049,0.0763 -0.29994,0.12122 -0.212844,0.0976 -0.436623,0.18593 -0.617143,0.33696 -0.05265,0.044 -0.111609,0.0932 -0.127183,0.16419 -0.0081,0.0368 0.05467,0.0843 -0.0193,0.0832 -0.210726,-0.003 -0.843007,-0.007 -0.632225,-0.008 0.322988,-5.5e-4 0.646045,0.004 0.968954,-0.004 0.08017,-0.002 0.162311,0.01 0.231916,0.0532 0.144682,0.0899 0.287275,0.18325 0.434725,0.2688 0.055,0.0319 0.110354,0.0632 0.165977,0.094"
           id="path917"
           inkscape:path-effect="#path-effect919"
           inkscape:original-d="m 91.200982,156.11358 c -0.04155,0 -0.124642,-0.0415 -0.124642,0 0,0.0416 0.140922,0.0382 0.124642,0 -0.322598,-0.75739 -1.209691,-1.4131 -1.072258,-2.22478 0.193765,-1.14435 1.112599,-2.077 1.938684,-2.89226 0.449458,-0.44357 1.230162,-0.37346 1.743297,-0.74151 0.230079,-0.16502 0.11801,-0.62467 0.361918,-0.76846 0.0962,-0.0567 2.445668,0 2.619254,0 1.135155,0 2.404221,-0.53487 3.405463,0 2.35009,1.25542 3.24272,3.39115 4.3219,5.52284 0.23092,0.45615 0.53777,0.88418 0.67785,1.37588 0.12098,0.42468 0,0.88315 0,1.32473 0,0.66455 0,1.32911 0,1.99367 0,0.22599 0,0.45198 0,0.67797 0,0.10167 0.0884,0.25479 0,0.30499 -2.11956,1.20357 -1.02025,0.49432 -2.3812,0.66354 -0.70701,0.0879 -1.40287,0.25252 -2.10913,0.34622 -3.640682,0.483 -2.988069,0.33221 -7.120967,0.33221 -1.322051,0 -2.644105,0 -3.966157,0 -0.336026,0 -0.672054,0 -1.008081,0 -0.113252,0 -0.247914,0.0663 -0.339756,0 -0.698799,-0.5042 -1.29861,-1.13402 -1.973863,-1.66934 -0.07235,-0.0574 -1.211279,-0.74751 -1.377972,-1.06119 -0.04879,-0.0918 0,-0.20794 0,-0.31191 0,-0.68919 0,-1.37838 0,-2.06757 0,-0.66102 -0.334621,-1.413 0,-1.98306 0.622369,-1.06029 1.776887,-1.69967 2.662362,-2.55259 0.109813,-0.10577 0.17911,-0.27427 0.323435,-0.32343 0.197522,-0.0673 0.417338,0 0.626007,0 0.531865,0 1.081582,0.13663 1.595599,0 0.712263,-0.18934 1.307793,-0.68658 1.994445,-0.95431 0.925814,-0.36098 3.68868,-0.87166 4.299995,-0.75669 0.689477,0.12967 1.078595,0.9325 1.724255,1.20694 0.671835,0.28556 1.464746,0.17512 2.145768,0.43801 2.47063,0.95375 3.19461,1.2744 4.6592,2.94677 1.85015,2.11262 1.43174,1.23909 1.43174,3.83322 0,0.21602 0,0.43203 0,0.64805 0,0.22406 0.13374,0.49242 0,0.67219 -0.70275,0.94468 -1.70348,0.63632 -2.67625,0.99478 -0.38552,0.14207 -0.63464,0.57689 -1.03494,0.66946 -0.6041,0.13969 -1.24008,0 -1.86011,0 -2.160136,0 -3.390324,0.10902 -5.804274,-0.97479 -2.678703,0.62404 -1.927603,-2.35813 -3.20598,-3.13065 -0.290446,-0.17552 -0.692097,0.0943 -1.018077,0 -0.474964,-0.13747 -0.898276,-0.4186 -1.320019,-0.67672 -0.135917,-0.0832 -0.286666,-0.18719 -0.338035,-0.33803 -0.07034,-0.20655 0,-0.4364 0,-0.6546 0,-0.22285 0,-0.44569 0,-0.66854 0,-0.10828 -0.08216,-0.25431 0,-0.32484 0.336174,-0.2886 0.796978,-0.39816 1.151581,-0.6638 1.162679,-0.87098 1.071157,-1.65044 2.799593,-2.12269 0.648512,-0.17719 1.344567,0 2.01685,0 0.471199,0 0.942398,0 1.413597,0 1.266299,0 2.594544,-0.39122 3.798894,0 0.66754,0.21684 0.95285,1.0347 1.48225,1.49551 0.60052,0.52271 1.2931,0.93208 1.89943,1.44803 0.26038,0.22156 1.94051,1.65029 1.46074,2.41981 -0.92226,1.47923 -1.79994,1.14982 -3.43714,1.83732 -2.709584,1.13781 -2.405856,1.37781 -4.711083,2.15694 -0.106823,0.0361 -0.228886,-0.0274 -0.338278,0 -0.345929,0.0865 -0.67646,0.22581 -1.014833,0.33828 -0.334013,0.11102 -0.654886,0.3886 -1.002321,0.33221 -1.338252,-0.21719 -2.730892,-0.45538 -3.907438,-1.12905 -2.247993,-1.28716 -2.075355,-4.72192 -2.76188,-6.5835 -0.213029,-0.57766 -0.817231,-0.93755 -1.097015,-1.48599 -0.01299,-0.0255 0,-1.95545 0,-1.97222 0,-0.22148 -0.16011,-0.5114 0,-0.66443 1.36331,-1.30299 1.403614,-1.18696 2.603317,-1.18696 0.67337,0 1.379869,-0.20861 2.020115,0 4.75828,1.55034 4.518769,2.72602 8.833116,5.62003 0.5902,0.3959 1.4016,0.39199 1.96696,0.82261 0.0623,0.0475 0,1.0261 0,1.23484 0,0.55334 0.29541,1.19213 0,1.66002 -0.87904,1.39231 -2.827849,1.85623 -4.054296,2.77179 -0.592225,0.44211 -0.979144,1.12921 -1.590024,1.54515 -0.187159,0.12744 -0.452848,0 -0.679273,0 -0.644708,0 -1.289413,0 -1.93412,0 -0.838634,0 -1.677268,0 -2.515902,0 -0.1255,0 -0.269235,0.0652 -0.376499,0 -0.673465,-0.40903 -1.280195,-0.91914 -1.91202,-1.38995 -2.408306,-1.79456 -1.613498,-1.18645 -4.133908,-3.67267 -0.236315,-0.23311 -0.531262,-0.42079 -0.704151,-0.70415 -0.189302,-0.31026 -0.191339,-0.70636 -0.354582,-1.03108 -0.132656,-0.26388 -0.537845,-0.34481 -0.62653,-0.62653 -0.06476,-0.2057 0,-0.4313 0,-0.64695 0,-0.43721 -0.07144,-1.36565 0.338396,-1.65741 0.871207,-0.62017 1.91334,-0.96857 2.920831,-1.32715 0.630277,-0.22433 1.322046,-0.22452 1.964375,-0.41158 0.85325,-0.24848 1.669225,-0.61133 2.512394,-0.89212 0.977024,-0.32536 1.964642,-0.61801 2.94727,-0.92604 0.855348,-0.26812 1.681197,-0.66287 2.566654,-0.80241 0.831416,-0.13102 1.683353,0 2.525027,0 0.456094,0 0.912188,0 1.368278,0 0.45365,0 0.96212,-0.21616 1.36096,0 0.68876,0.3733 1.03623,1.19592 1.67707,1.64656 0.18117,0.12739 0.5083,-0.15709 0.66443,0 0.24822,0.24973 0.20165,0.67572 0.33221,1.00272 0.0935,0.23419 0.19934,0.46622 0.33832,0.67662 0.33029,0.50002 0.89994,0.87218 1.06522,1.44819 0.88951,3.09992 -1.26656,3.17105 -3.3319,5.45261 -0.84091,1.09302 -1.68182,2.18604 -2.52273,3.27905 -0.537481,0.28356 -1.192803,0.41112 -1.612435,0.85066 -0.285684,0.29923 -0.107479,0.85126 -0.339452,1.19381 -0.158817,0.23453 -0.469718,0.34273 -0.745313,0.40807 -0.316487,0.075 -0.650521,0 -0.975781,0 -0.685247,0 -1.451776,0.32372 -2.055741,0 -1.694765,-0.90837 -3.003933,-2.40291 -4.552947,-3.54217 -7.198646,-5.29443 -2.899005,-1.03355 -7.183274,-6.57126 -0.194966,-0.252 -0.533463,-0.39041 -0.676838,-0.67495 -0.534353,-1.06046 1.008528,-0.87975 1.476595,-1.06956 0.145129,-0.0589 0.180284,-0.29423 0.332216,-0.33221 0.322294,-0.0806 0.664429,0 0.996643,0 0.614502,0 1.229002,0 1.843505,0 1.438307,0 2.876614,0 4.314918,0 0.682389,0 1.414888,-0.25667 2.047166,0 0.694766,0.28204 1.087831,1.03437 1.668758,1.50847 0.490022,0.39991 0.97399,0.82578 1.53923,1.1096 0.199755,0.10031 0.463153,-0.0833 0.670573,0 0.401881,0.16141 1.40331,0.92864 1.682467,1.34445 0.01296,0.0193 0.01921,0.86567 0,0.87665 -0.454316,0.86646 -1.283441,0.0626 -1.844133,0.33871 -0.29147,0.14353 -0.374348,0.60907 -0.689207,0.6892 -0.65222,0.16598 -1.346015,0 -2.01902,0 -0.226121,0 -0.469448,-0.0865 -0.67836,0 -1.944499,0.80529 -0.09692,0.67544 -1.626076,0.67544 -0.204973,0 0.409943,0 0.614913,0 0.72599,0 0.313385,-0.0714 1.186659,0.41227" /></g><path
         style="fill:#208dd4;fill-opacity:1;stroke:none;stroke-width:0.264583px;stroke-linecap:butt;stroke-linejoin:miter;stroke-opacity:1"
         d="m 43.639364,176.8372 c -0.720721,-0.005 -1.479972,-0.61985 -2.189565,-0.55452 0,0 -10e-7,0 -10e-7,0 -0.306889,0.0264 -0.611408,0.14582 -0.720688,0.36751 -0.08486,0.14003 -0.596175,0.24409 -1.946065,-0.20264 -1.111323,-0.45657 -2.11268,-1.28963 -2.755179,-2.55881 -0.586909,-0.85307 -0.80263,-1.85902 -0.457668,-2.90561 -0.213215,0.1501 -0.492709,0.42151 -0.66955,0.87367 0,0 -10e-7,0 -10e-7,0 -0.117648,-0.0163 -0.893188,-0.27227 -2.288357,-1.3427 -1.433688,-1.24085 -2.430083,-2.5496 -3.035043,-3.71777 -0.619186,-1.05597 -1.000409,-1.88096 -1.313507,-2.29273 -0.09581,-0.16913 -0.229004,-0.35202 -0.395791,-0.55595 -0.591064,-0.72268 -1.570622,-1.6839 -2.602828,-3.01199 -2.495728,-3.22405 -4.191334,-7.47994 -4.878636,-8.83361 -0.877363,-1.69708 -1.608864,-2.9809 -2.202773,-3.99607 -0.458889,-0.80191 -0.80656,-1.49878 -0.653347,-2.12486 0.147704,-0.60357 0.810373,-1.13739 2.066785,-1.22444 1.605185,-0.0978 4.021344,0.58322 6.321365,2.47155 2.617661,2.11509 4.782619,5.34804 6.792948,7.35297 0.676392,0.67903 1.782429,1.69628 2.93297,3.15298 0.330997,0.41907 0.665331,0.87343 0.997029,1.3673 0.818129,1.34179 1.285474,2.44697 1.592305,3.15284 0.386029,0.72067 0.501305,1.16795 0.569101,1.25362 -0.006,0.15701 0.847299,0.73078 1.999809,1.8719 0,0 10e-7,1e-5 10e-7,1e-5 1.371192,1.87276 2.09071,3.96248 2.29431,5.92873 0.0397,-0.11067 -0.113582,-0.11753 -0.36198,-0.13115 -0.268399,-0.34639 -0.574583,-0.4592 -0.895929,-0.49724 -0.377383,0.0554 0.114607,0.27375 0.905047,0.75416 1.178094,0.71904 1.792075,1.70819 2.053402,2.56924 0,0 0,0 0,1e-5 0.632644,2.11512 -0.655807,2.83697 -1.158164,2.8336 z"
         id="path1392"
         inkscape:path-effect="#path-effect1394;#path-effect1396"
         inkscape:original-d="m 43.639364,176.8372 c -0.634249,-0.93164 -1.099196,-2.00465 -1.902746,-2.79493 -0.357362,-0.35146 -1.105516,-0.0926 -1.425556,-0.4784 -0.555104,-0.66908 -0.651645,-1.61201 -0.977469,-2.41802 -0.493977,-0.84251 -0.837996,-1.79324 -1.481931,-2.52753 -0.588926,-0.67157 -1.589456,-0.90714 -2.144083,-1.6073 -1.271236,-1.60481 -2.051966,-3.55191 -3.254978,-5.20848 -1.043014,-1.43626 -2.384714,-2.63515 -3.464309,-4.04411 -2.022901,-2.64005 -3.622561,-5.61063 -5.835792,-8.09329 -1.186713,-1.33117 -2.749977,-2.28835 -4.262069,-3.23381 -2.994326,-1.87225 0.614752,1.5246 -1.36006,-0.45021"
         class="UnoptimicedTransforms" /><path
         style="fill:#208dd4;fill-opacity:1;stroke:none;stroke-width:0.264583px;stroke-linecap:butt;stroke-linejoin:miter;stroke-opacity:1"
         d="m 33.388548,131.54215 c -1.198221,1.59517 -5.405911,1.25004 -9.401896,-3.06421 -0.672039,-0.69774 -1.081863,-1.21893 -1.293132,-1.29407 -0.108363,-0.10914 -0.378379,-0.25797 -0.813403,-0.53379 -0.263659,-0.16718 -0.573271,-0.37217 -0.922233,-0.62911 -1.056626,-0.6449 -2.310813,-1.71095 -3.482319,-3.2387 -0.906196,-1.31789 -1.017414,-1.98335 -0.956034,-2.1451 0.0905,-0.18824 -0.60782,-1.0922 -1.254672,-2.33628 0,0 0,0 0,0 -0.635586,-1.40089 -0.566637,-2.70714 -0.236303,-3.66539 0.812477,-2.32168 2.516038,-2.07239 3.083507,-1.67586 0.765531,0.53494 1.27506,1.56296 2.028485,1.67586 0.321981,0.049 0.676244,-0.0301 0.818708,-0.31369 0,0 1e-6,0 1e-6,0 0.08416,-0.19794 0.569864,-0.26155 1.69835,0.68098 1.094181,0.96338 1.759918,1.777 1.967798,1.78874 0.137634,0.0633 0.751688,0.25122 1.624149,0.81917 0.345356,0.18014 0.742658,0.41319 1.180649,0.7137 0.72479,0.49728 1.524208,1.15434 2.341905,2.00093 1.015514,1.1902 1.538118,2.14615 1.803268,2.76277 1.585674,3.4358 3.054203,6.80188 1.813172,8.45405 z"
         id="path1398"
         inkscape:path-effect="#path-effect1400;#path-effect1402"
         inkscape:original-d="m 33.388548,131.54215 c -4.426018,-3.50945 -2.345499,-1.39158 -5.607534,-5.75913 -0.508987,-0.68148 -0.927886,-1.44644 -1.5482,-2.02842 -4.113563,-3.85936 -1.362189,-0.11319 -5.182329,-3.9677 -0.575045,-0.58022 -0.934497,-1.34309 -1.461916,-1.96692 -0.454295,-0.53734 -1.063402,-0.93902 -1.476511,-1.50863 -0.137666,-0.18982 0,-2.94417 0,-3.3517"
         class="UnoptimicedTransforms" /><path
         style="fill:#208dd4;fill-opacity:1;stroke:none;stroke-width:0.264583px;stroke-linecap:butt;stroke-linejoin:miter;stroke-opacity:1"
         d="m 43.008327,93.004462 c -0.906269,0.755808 -2.825074,0.171127 -5.270775,-1.495444 -2.507579,-1.70893 -5.350785,-4.387694 -8.372582,-7.751535 -0.759482,-0.841172 -1.523227,-1.722315 -2.205003,-2.432109 -0.156968,-0.159756 -0.395095,-0.399382 -0.552063,-0.559138 -0.975099,-0.99059 -2.133119,-2.222939 -3.263308,-3.918274 -0.678809,-1.152356 -1.208282,-2.343458 -1.596893,-3.537703 0.08231,-0.202392 0.04408,-0.725323 -0.01743,-1.059558 -0.105983,-1.38809 -0.221625,-2.709304 -0.339916,-3.933309 0,0 -4e-6,-5e-6 -4e-6,-5e-6 -0.684833,-0.90985 -1.152559,-1.651582 -1.462235,-2.206502 -0.230092,0.640329 -0.22273,1.236927 -0.03425,1.832779 0.207669,0.615915 0.567197,1.053235 1.056742,1.382618 0.518692,0.334791 1.040179,0.442005 1.590141,0.396231 0.356445,-0.06877 0.315929,-0.08189 -0.06041,-0.09178 -0.405369,0.08186 -1.139494,-0.06299 -2.106561,-0.430613 -1.016043,-0.620313 -1.554743,-1.235778 -1.722456,-1.792276 -0.524858,-1.210598 -0.432291,-2.375207 -0.003,-3.350345 0.519745,-1.127879 1.396481,-1.740047 2.277441,-2.002991 1.126676,-0.316978 2.041528,0.02309 2.596402,0.450457 1.46828,1.161541 0.435909,2.132386 0.199903,2.233161 -0.397713,0.169824 -1.321067,0.199251 -1.320157,0.784513 0.0036,0.216805 0.123768,0.508761 0.49927,0.55629 0.290321,0.02449 0.62929,-0.03468 0.910944,-0.408676 0.227476,-0.330719 0.364623,-0.722594 0.213229,-1.261709 -0.01154,-0.277633 -0.327999,-0.62257 -1.03705,-1.106872 -0.695464,-0.247312 -1.118182,-0.388214 -1.216333,-0.339318 -0.07957,-0.04117 0.174303,-0.117062 0.839639,-0.183075 0.9962,-0.0412 1.97516,0.220486 2.860662,0.846204 0.840195,0.607532 1.465392,1.447411 1.784157,2.517329 0.295056,1.031655 0.264613,2.109108 -0.155783,3.175138 -0.493347,-0.146373 -1.286001,-0.528248 -2.381615,-1.220888 0,0 -6e-6,-4e-6 -6e-6,-4e-6 0.533998,-0.980329 1.065788,-1.981785 1.573498,-2.977005 2.091751,1.024817 3.835264,2.92319 4.472844,5.557818 0.180675,0.242832 0.393291,0.464309 0.632531,0.652135 0.443847,0.602631 1.299029,1.334393 2.38698,2.468561 0.224061,0.233579 0.454574,0.481244 0.689737,0.745279 0.986377,1.090191 1.802633,2.163692 2.490181,3.133327 2.626493,3.684983 4.586824,7.263456 5.638996,9.904895 1.07067,2.688299 1.315428,4.662739 0.404547,5.422394 z"
         id="path1404"
         inkscape:path-effect="#path-effect1406;#path-effect1408"
         inkscape:original-d="M 43.008327,93.004462 C 42.062439,91.851489 41.094548,90.716221 40.170666,89.545543 33.432369,81.007248 38.407657,86.972671 33.164877,80.717328 32.385341,79.787236 31.615943,78.848333 30.817285,77.93461 29.684522,76.638646 28.419414,75.454268 27.371241,74.088984 26.889543,73.461556 26.6281,72.69237 26.256529,71.994066 25.508151,70.891169 24.871952,69.703163 24.011394,68.685377 23.781208,68.413134 23.373589,68.36661 23.054687,68.207225 c -0.159504,-0.652111 -0.09273,-1.406909 -0.478511,-1.956329 -0.171464,-0.244195 -0.607578,0.07961 -0.895141,0 -0.155695,-0.0431 -0.472492,-0.246504 -0.342703,-0.342702 0.711107,-0.527063 1.589149,-0.780047 2.383724,-1.170069"
         class="UnoptimicedTransforms" /><path
         style="fill:#208dd4;fill-opacity:1;stroke:none;stroke-width:0.264583px;stroke-linecap:butt;stroke-linejoin:miter;stroke-opacity:1"
         d="M 65.95112,63.327237 C 64.850195,64.102666 62.243197,62.764184 59.28453,59.387713 56.305443,55.987937 53.190538,50.729611 51.280106,44.109399 50.750135,42.27289 50.350175,40.45965 50.067896,38.694951 49.673782,36.231984 49.49221,33.620902 49.336717,31.891563 49.078865,28.837042 48.7687,26.731354 48.82537,24.475706 c 0.05348,-2.211644 0.515302,-3.621763 1.406534,-3.915949 0.892193,-0.294502 2.099148,0.564172 3.466084,2.290449 1.180966,1.48861 2.70156,3.934787 3.881599,7.053615 0.862721,2.31156 1.386686,4.443862 2.013025,6.8077 0.398541,1.50308 0.819955,3.035691 1.279979,4.629346 1.62928,5.644291 3.396832,10.692342 4.553526,14.567253 1.151313,3.856886 1.667671,6.614287 0.525003,7.419117 z"
         id="path1410"
         inkscape:path-effect="#path-effect1412;#path-effect1414"
         inkscape:original-d="M 65.95112,63.327237 C 62.983747,54.497708 57.894595,46.495604 54.830254,37.703236 54.068649,35.517992 54.02821,33.140541 53.458152,30.897692 52.837323,28.455083 52.044343,26.058619 51.261679,23.662956 50.175874,20.339393 50.231907,22.055212 50.231907,20.559765"
         class="UnoptimicedTransforms" /><path
         style="fill:#208dd4;fill-opacity:1;stroke:none;stroke-width:0.264583px;stroke-linecap:butt;stroke-linejoin:miter;stroke-opacity:1"
         d="m 112.33641,55.484103 c -0.66951,0.497715 -2.97406,0.373498 -4.21355,-2.995003 -0.60161,-1.605064 -0.6875,-2.658902 -1.03515,-4.021278 -0.35067,-1.705595 -0.62416,-3.643798 -0.80092,-5.741594 -0.0586,-0.515187 -0.14416,-1.062065 -0.24477,-1.67185 -0.0668,-0.371351 -0.12921,-0.932946 -0.14372,-1.692384 -0.041,-0.766371 0.12451,-1.750935 0.55626,-2.926829 0.61663,-1.187473 1.08468,-1.892124 1.29522,-2.162083 0.10259,-0.131548 0.14103,-0.155954 0.105,-0.08384 -0.0513,0.48922 -0.0153,-0.369112 0.70955,-2.034822 0.63524,-1.500289 1.14844,-2.148061 1.2521,-2.299004 0,0 0,-10e-7 0,-10e-7 0.27039,-0.171149 0.46512,-1.396236 1.0651,-2.996492 1.25569,-2.936193 3.02239,-4.420742 4.16757,-5.182909 1.7568,-1.221231 3.19235,-1.744532 4.08684,-1.199499 0.88684,0.54037 1.1049,2.080077 0.62006,4.284649 -0.27299,1.385524 -0.94063,3.340786 -0.74407,4.223937 0.0411,0.459387 0.16896,1.736723 -0.33864,3.858002 0,1e-6 0,3e-6 0,3e-6 -0.46023,1.520681 -0.9269,2.446382 -0.94496,2.70843 -0.005,0.302513 -0.23224,1.685929 -1.48013,4.03571 -0.24778,0.401396 -0.44906,0.689623 -0.59079,0.870461 -0.29276,0.373564 -0.3186,0.276844 -0.0123,-0.173481 0.14625,-0.494292 0.21326,-0.736832 0.16128,-0.776497 -0.0252,-0.02015 -0.0118,0.15151 -0.001,0.501353 0.0598,0.887313 0.0662,1.795244 0.008,2.717145 -0.17676,2.097796 -0.45025,4.035999 -0.80092,5.741594 -0.25822,1.587325 -0.79776,2.800217 -1.03515,3.409856 -0.69584,1.319738 -0.75752,2.95007 -1.64043,3.606425 z"
         id="path1416"
         inkscape:path-effect="#path-effect1418;#path-effect1420"
         inkscape:original-d="m 112.33641,55.484103 c -0.42885,-1.100238 -1.07358,-2.139217 -1.28656,-3.300714 -0.22338,-1.218213 0,-2.477045 0,-3.715567 0,-1.913864 0,-3.82773 0,-5.741594 0,-1.455509 -0.24613,-2.931982 0,-4.366532 0.10033,-0.584795 0.75138,-0.933474 1.00164,-1.471451 0.45366,-0.975207 0.69884,-2.035254 1.09484,-3.035266 0.33554,-0.847354 0.83381,-1.63164 1.09853,-2.503717 0.33873,-1.115846 0.27971,-2.340221 0.70187,-3.427249 0.6403,-1.648684 1.57705,-3.168527 2.45582,-4.703423 3.22504,-5.633009 0.0904,0.576782 1.73339,-2.74207"
         class="UnoptimicedTransforms" /><path
         style="fill:#208dd4;fill-opacity:1;stroke:none;stroke-width:0.264583px;stroke-linecap:butt;stroke-linejoin:miter;stroke-opacity:1"
         d="m 142.74039,72.715373 c -1.00567,0.378848 -5.12467,-1.674073 -4.12764,-8.505579 0.53957,-3.436355 2.63765,-7.323019 6.75159,-9.814879 0.29808,-0.173041 0.59432,-0.369172 0.88381,-0.585224 0.69817,-0.521055 1.32588,-1.134118 1.82916,-1.768333 0.79475,-1.012495 1.37363,-2.247401 1.72492,-3.410734 0,-10e-7 0,-10e-7 0,-2e-6 0.12414,-0.471931 0.23509,-1.434587 0.51583,-2.553573 0.59121,-1.930414 1.68711,-3.078583 2.64554,-3.691413 0.64321,-0.438129 1.33553,-0.713579 1.94519,-0.812317 1.18833,-0.180346 1.78364,0.382121 1.94912,0.907001 0.17984,0.570429 0.004,1.230454 0.0328,1.863967 0.01,0.327101 0.0585,0.676136 0.0463,1.086761 0.0153,0.614095 0.0857,1.260208 0.39874,1.515263 0.11441,0.140038 0.37014,0.580672 0.51583,1.555822 0,10e-7 0,10e-7 0,10e-7 0.41539,2.524342 0.10437,5.562526 -1.45942,8.503922 -0.9383,1.78199 -2.28419,3.412113 -4.01348,4.713851 -0.71236,0.536229 -1.46695,0.999346 -2.25185,1.38772 -1.52881,0.758511 -2.88189,2.122463 -3.75735,3.436735 -0.86023,1.251939 -1.40535,2.647576 -1.89869,3.794646 -0.49394,1.14846 -0.95055,2.082605 -1.73035,2.376365 z"
         id="path1422"
         inkscape:path-effect="#path-effect1424;#path-effect1426"
         inkscape:original-d="m 142.74039,72.715373 c -0.23051,-1.941766 -0.80571,-6.08199 -0.2493,-7.338295 1.14147,-2.577341 3.82022,-4.199171 5.25447,-6.625807 8.15275,-20.738221 -2.32165,3.261892 6.08132,-10.184892 0.36295,-0.580819 -0.16058,-1.388891 0,-2.054699 0.22158,-0.918784 0.64712,-1.78699 1.1234,-2.603338 0.22555,-0.386609 0.54875,-0.750086 0.94945,-0.949539 1.11766,-0.556329 0.95817,0.597206 0.95817,-0.478481"
         class="UnoptimicedTransforms" /><path
         style="fill:#208dd4;fill-opacity:1;stroke:none;stroke-width:0.264583px;stroke-linecap:butt;stroke-linejoin:miter;stroke-opacity:1"
         d="m 173.52232,105.53538 c -1.24807,-0.22319 -2.25448,-2.0067 -2.16704,-5.03125 0.087,-3.009952 1.31371,-7.030203 4.32492,-10.736019 0,0 0,0 0,-1e-6 0.3478,-0.429571 0.72124,-0.854386 1.12116,-1.270709 0.69006,-0.718377 1.42997,-1.381323 2.21196,-1.982104 0.54024,-0.480886 0.69145,-0.449789 0.44599,-0.170264 -0.13396,0.428694 -0.13139,0.411698 0.0894,0.09458 0.28721,-0.653342 0.54745,-1.44941 0.83465,-2.102752 0.4609,-0.935031 0.84912,-1.415082 1.07257,-1.619309 0.18682,-0.246859 0.39805,-0.131877 0.50024,0.10933 0.14964,0.166361 0.18713,-0.157133 0.24837,-0.752017 -0.0373,-0.705941 0.30433,-1.687897 0.88102,-2.64146 0.57599,-0.690719 1.0322,-0.960917 1.36394,-1.028636 0,0 0,0 0,0 0.35901,-0.114227 0.52516,5.14e-4 0.61368,0.118384 0.0603,0.07678 0.22475,0.01916 0.42765,-0.06966 0.24509,-0.130121 0.59745,-0.229984 0.92908,-0.266085 1.24018,-0.08185 1.0261,0.934996 0.95161,1.09498 -0.11268,0.242013 -0.54252,0.899887 0.068,1.094978 0.15172,0.04264 0.34669,0.08598 0.42331,0.14261 0.0715,0.06068 0.1081,0.18468 0.0156,0.439499 -0.1691,0.41207 -0.39554,0.856146 -0.42593,1.049721 0,0 0,10e-7 0,10e-7 0.005,0.20892 0.0977,0.258563 0.43755,0.006 0.27923,-0.400281 0.57319,-0.683913 0.61878,-0.66162 0.13025,0.04219 0.33692,0.380253 0.51061,1.258483 0.1356,1.266862 0.0405,2.421623 -0.2291,3.241715 -0.1765,0.73954 -0.31751,1.227443 -0.22637,1.350004 0.0467,0.109056 0.0961,0.530327 -0.0294,1.368788 -0.0513,0.813747 -0.40181,1.959246 -1.25155,3.388588 -0.89744,1.185148 -1.61404,1.879573 -1.96679,2.140766 -0.42864,0.405071 -0.86011,0.838903 -1.30726,1.306532 -0.25825,0.270079 -0.51634,0.545788 -0.77232,0.822227 0,0 0,10e-7 0,10e-7 -2.15403,2.336947 -3.94043,4.677597 -5.49949,6.472317 -1.53935,1.77203 -2.93097,3.06193 -4.21483,2.83234 z"
         id="path1428"
         inkscape:path-effect="#path-effect1430;#path-effect1432"
         inkscape:original-d="m 173.52232,105.53538 c 2.93603,-3.54745 3.24017,-8.779852 5.9361,-12.535964 0.74177,-1.033476 1.79916,-1.798995 2.70635,-2.690786 0.3971,-0.390356 0.9539,-0.659215 1.20639,-1.155515 0.53777,-1.057031 0.73184,-2.25621 1.10247,-3.382772 0.33491,-1.017987 0.80298,-2.000194 1.01414,-3.050849 0.13104,-0.652018 -0.20845,-1.363626 0,-1.99517 0.14525,-0.440042 0.65534,-0.655336 0.983,-0.983004 0.15298,-0.152974 0.26617,-0.360709 0.45893,-0.458925 0.13121,-0.06685 0.29452,0 0.44178,0"
         class="UnoptimicedTransforms" /><path
         style="fill:#208dd4;fill-opacity:1;stroke:none;stroke-width:0.264583px;stroke-linecap:butt;stroke-linejoin:miter;stroke-opacity:1"
         d="m 160.31389,156.56027 c 0.0417,-0.81402 0.79132,-1.53044 1.69394,-2.33423 0.90928,-0.80972 2.03579,-1.7642 2.88364,-2.96031 0,0 1e-5,0 1e-5,0 1.19016,-1.44704 2.17766,-4.45266 6.21134,-7.9646 0,0 0,0 0,0 0.31283,-0.25452 0.61966,-0.49006 0.91876,-0.70895 1.24664,-0.91231 2.36754,-1.53628 3.08228,-1.97347 0.90893,-0.6892 1.5682,-0.94068 1.72718,-1.14075 0.0866,-0.0806 0.50746,-0.94778 1.37711,-2.19926 0.48569,-0.67328 1.25425,-1.27936 2.24343,-1.77648 1.07875,-0.54802 2.37044,-0.60595 3.73556,-0.23932 0.81781,0.2807 0.80158,0.36786 0.17016,0.21656 -0.34737,-0.0854 -0.86045,-0.0234 -1.53119,0.15842 -0.74187,0.19668 -1.3653,0.77036 -1.90837,1.6857 0,0 0,1e-5 0,1e-5 -0.3301,0.92523 -0.42649,1.49998 -0.29403,1.77387 0.0551,0.25233 0.0556,0.14959 0.0291,-0.27702 -0.002,-1.10143 0.30187,-1.97615 0.81126,-2.63236 0.52494,-0.67204 1.08688,-1.0977 1.64258,-1.33008 1.22367,-0.44751 2.00031,-0.4325 2.46003,-0.27549 0.53198,0.10109 0.6662,0.35258 0.70714,0.5068 0.0251,0.11645 0.0532,0.27331 0.0915,0.40716 0,0 0,0 0,0 0.0422,0.18462 0.19682,0.35859 0.35135,0.44347 0.34498,0.18786 0.75814,-0.0875 1.10511,-0.18178 0.30547,-0.083 0.9312,-0.053 1.10511,0.78256 0.0752,0.39771 0.0314,0.93582 -0.27141,1.43705 0,0 0,0 0,1e-5 -0.22265,0.3753 -0.53826,0.74248 -0.92285,1.01138 -0.60736,0.40947 -1.28599,0.71992 -1.62688,0.91196 -0.26284,0.23705 -0.30871,0.34737 0.18239,0.33055 0.22587,-0.0369 0.47934,-0.19378 0.78786,-0.52101 0.30483,-0.3301 0.48769,-0.80443 0.52147,-1.5015 -0.0123,-0.26486 0.0263,-0.2121 0.0974,0.20485 0.14787,0.43375 0.0433,1.17867 -0.36234,2.24895 0,0 0,2e-5 0,2e-5 -0.62313,1.06913 -1.39824,1.75472 -2.30889,2.00415 -0.83655,0.23369 -1.52971,0.29392 -2.05086,0.17587 -0.98371,-0.21815 -1.28507,-0.30149 -0.82369,-0.11934 0.80904,0.21474 1.47728,0.24968 2.01778,-0.0206 0.47392,-0.23129 0.80867,-0.41554 0.94755,-0.59316 0.20289,-0.29783 0.3273,-0.0397 -0.0919,1.01755 -0.99617,2.3947 -2.52966,4.27756 -4.20914,5.4457 -1.15346,0.90738 -2.19484,1.55447 -2.91958,2.07845 -0.16997,0.12289 -0.3205,0.23798 -0.45122,0.3487 0,0 0,0 0,0 -1.84971,1.33269 -4.40317,4.78243 -7.83678,6.71512 0,0 0,0 0,0 -6.16869,3.23604 -9.34213,-0.17396 -9.29193,-1.1551 z"
         id="path1434"
         inkscape:path-effect="#path-effect1436;#path-effect1438"
         inkscape:original-d="m 160.31389,156.56027 c 2.31159,-0.6899 4.93445,-0.72132 6.93476,-2.06972 2.80801,-1.89287 4.5862,-4.98939 7.02406,-7.33986 2.12575,-2.04957 4.47774,-3.85224 6.65408,-5.84801 0.79063,-0.72504 1.37163,-1.68141 2.24135,-2.3094 0.25863,-0.18675 0.67169,0.14266 0.95702,0 0.14266,-0.0713 -0.12449,-0.37878 0,-0.47848 0.14835,-0.1188 3.25773,-1.84019 3.69664,-2.27447 0.11425,-0.11304 0,-0.32144 0,-0.48217"
         class="UnoptimicedTransforms" /></g></g></svg>
