<?xml version="1.0" encoding="UTF-8" standalone="no"?>
<!-- Created with Inkscape (http://www.inkscape.org/) -->

<svg
   width="210mm"
   height="297mm"
   viewBox="0 0 210 297"
   version="1.1"
   id="svg5"
   inkscape:version="1.2.2 (b0a8486541, 2022-12-01)"
   sodipodi:docname="anon-2.svg"
   xmlns:inkscape="http://www.inkscape.org/namespaces/inkscape"
   xmlns:sodipodi="http://sodipodi.sourceforge.net/DTD/sodipodi-0.dtd"
   xmlns="http://www.w3.org/2000/svg"
   xmlns:svg="http://www.w3.org/2000/svg">
  <sodipodi:namedview
     id="namedview7"
     pagecolor="#ffffff"
     bordercolor="#666666"
     borderopacity="1.0"
     inkscape:showpageshadow="2"
     inkscape:pageopacity="0.0"
     inkscape:pagecheckerboard="0"
     inkscape:deskcolor="#d1d1d1"
     inkscape:document-units="px"
     showgrid="false"
     showborder="false"
     shape-rendering="crispEdges"
     inkscape:zoom="0.56315579"
     inkscape:cx="513.17949"
     inkscape:cy="487.43173"
     inkscape:window-width="1920"
     inkscape:window-height="1055"
     inkscape:window-x="0"
     inkscape:window-y="25"
     inkscape:window-maximized="1"
     inkscape:current-layer="layer1" />
  <defs
     id="defs2">
    <inkscape:path-effect
       effect="simplify"
       id="path-effect919"
       is_visible="true"
       lpeversion="1"
       steps="1"
       threshold="0.000408163"
       smooth_angles="360"
       helper_size="0"
       simplify_individual_paths="false"
       simplify_just_coalesce="false" />
    <inkscape:path-effect
       effect="simplify"
       id="path-effect915"
       is_visible="true"
       lpeversion="1"
       steps="1"
       threshold="0.000408163"
       smooth_angles="360"
       helper_size="0"
       simplify_individual_paths="false"
       simplify_just_coalesce="false" />
  </defs>
  <g
     inkscape:label="Layer 1"
     inkscape:groupmode="layer"
     id="layer1">
    <g
       id="g923"
       transform="matrix(3.3832837,0,0,2.2960809,-206.28368,-93.958788)"
       style="stroke:#208dd4;stroke-opacity:1">
      <path
         style="fill:none;stroke:#208dd4;stroke-width:5;stroke-linecap:butt;stroke-linejoin:miter;stroke-dasharray:none;stroke-opacity:1"
         d="m 67.235551,59.452239 c 0.461991,-4.23e-4 0.929199,0.12719 1.386087,0.02604 0.250056,-0.05536 0.494422,-0.13446 0.736667,-0.216896 0.977562,-0.332663 1.91466,-0.768543 2.862307,-1.175597 0.860673,-0.369695 1.658064,-0.883449 2.555533,-1.167607 0.248843,-0.07879 0.506172,-0.133347 0.768011,-0.142542 0.649541,-0.02281 1.294958,0.160581 1.943502,0.07519 0.220181,-0.02899 0.43448,-0.09022 0.649257,-0.144812 1.478768,-0.375867 2.954915,-0.765009 4.413805,-1.212041 0.620764,-0.190214 1.250638,-0.361194 1.847152,-0.618901 0.401178,-0.173318 0.785509,-0.383341 1.163295,-0.602268 0.733527,-0.425079 1.448793,-0.880255 2.181358,-1.307343 0.229578,-0.133845 0.460477,-0.299042 0.732742,-0.319939 0.207516,-0.01593 0.413669,0.02027 0.62146,0.02021 1.314995,-3.58e-4 2.630407,0.03211 3.944991,-5.39e-4 0.471768,-0.01172 0.930571,-0.178929 1.404927,-0.14207 0.183028,0.01422 0.356556,0.08395 0.511837,0.1824 1.15462,0.732076 2.14219,1.687355 3.121402,2.632663 0.646554,0.624168 1.299946,1.242555 1.994426,1.81413 1.2495,1.028371 2.56794,1.977617 3.75309,3.079525 0.0982,0.09126 0.18277,0.196595 0.2687,0.299332 0.70608,0.844191 1.27063,1.791796 1.87008,2.711239 0.31775,0.48737 0.65401,0.964772 0.93014,1.477343 0.091,0.168866 0.17755,0.348712 0.179,0.546261 0.002,0.335909 0.11763,0.658033 0.23698,0.967094 0.33317,0.86275 0.7448,1.692455 1.15438,2.520755 0.60928,1.232144 1.40573,2.356513 2.18277,3.485321 0.29556,0.429362 0.73425,0.751703 0.96946,1.222759 0.11981,0.239944 0.18171,0.504282 0.22476,0.767406 0.11782,0.720067 0.0723,1.457803 0.22221,2.173976 0.0655,0.313115 0.0966,0.639711 0.2241,0.933913 0.0207,0.04768 0.064,0.17798 0.1234,0.116754 0.0495,-0.05101 0.11045,-0.203922 0.18886,-0.11823 0.0936,0.10226 0.13952,0.237786 0.1839,0.366287 0.14898,0.431362 0.26742,0.873188 0.36545,1.318528 0.0833,0.378474 0.11254,0.781555 -0.007,1.156515 -0.0863,0.271513 -0.22311,0.527319 -0.26755,0.811765 -0.0674,0.431498 0.0275,0.86869 0.14736,1.282043 0.0705,0.243142 0.15272,0.485147 0.28332,0.703918 0.35875,0.600941 0.92745,1.044233 1.27191,1.655652 0.134,0.23785 0.2136,0.504973 0.22989,0.778057 0.0324,0.543132 -0.0973,1.077903 -0.0973,1.62086 9e-5,2.222554 -0.0335,4.445363 1.3e-4,6.667662 0.004,0.278485 0.12089,0.552063 0.0672,0.830863 -0.0297,0.154307 -0.13366,0.278868 -0.23234,0.395041 -0.4242,0.499413 -1.02352,0.810237 -1.44562,1.312432 -0.19695,0.234324 -0.32225,0.522199 -0.38178,0.821447 -0.13654,0.686369 0.004,1.398248 -0.15952,2.080909 -0.0314,0.131133 -0.0716,0.264706 -0.16239,0.369173 -0.20051,0.230598 -0.5234,0.333317 -0.68493,0.598053 -0.1415,0.23191 -0.29001,0.4637 -0.38324,0.72037 -0.0386,0.10613 -0.0501,0.22826 0.005,0.33145 0.0654,0.12272 0.10342,0.25927 0.10235,0.39949 -0.002,0.19906 -0.0198,0.40367 -0.0955,0.58684 -0.0633,0.15306 -0.28381,0.16503 -0.33438,0.32466 -0.15234,0.48084 -0.0499,1.00013 -0.19988,1.48192 -0.0811,0.26057 -0.27542,0.47276 -0.50833,0.60912 -0.35201,0.20609 -0.75802,0.28725 -1.15349,0.36585 -0.35684,0.0709 -0.72788,0.10425 -1.06343,0.24989 -0.19877,0.0863 -0.39387,0.18332 -0.57758,0.29793 -0.11027,0.0688 -0.23429,0.12948 -0.31189,0.23664 -0.0624,0.0861 0.0498,0.1508 0.11107,0.18896 0.0673,0.0419 0.11338,0.12488 0.0845,0.20397 -0.0533,0.14613 -0.17378,0.25381 -0.28621,0.35531 -0.39724,0.35861 -0.89275,0.58196 -1.38662,0.7731 -0.80494,0.31153 -1.64699,0.51356 -2.45646,0.81143 -0.31687,0.1166 -0.6346,0.25147 -0.89269,0.47612 -0.43014,0.37442 -0.73005,0.87062 -1.15905,1.24774 -0.54785,0.4816 -1.16298,0.88202 -1.70282,1.37212 -0.224768,0.20406 -0.369277,0.49545 -0.644767,0.64266 -0.576344,0.30797 -1.304708,0.35699 -1.781521,0.80913 -0.05341,0.0507 -0.02711,0.13336 -0.0046,0.19088 0.03226,0.0825 0.005,0.16705 -0.01348,0.24924 -0.06777,0.30168 -0.110552,0.62601 -0.305923,0.87669 -0.22387,0.28725 -0.546497,0.47364 -0.868014,0.62927 -0.05621,0.0272 -0.109359,0.0624 -0.179056,0.0536 -0.06735,-0.008 -0.165643,-0.0853 -0.206552,-0.02 -0.117027,0.18677 -0.223867,0.38247 -0.302064,0.58914 -0.05655,0.14946 -0.101452,0.32153 -0.0339,0.47362 0.03698,0.0832 0.02318,0.17833 -0.02116,0.25616 -0.115813,0.20325 -0.272559,0.38062 -0.43847,0.54329 -0.09612,0.0942 -0.176285,0.20819 -0.289456,0.28264 -0.1886,0.12407 -0.462551,0.11944 -0.599579,0.30712 -0.05444,0.0746 -0.0037,0.16867 0.0019,0.25035 0.0079,0.11574 0.01407,0.23175 0.02835,0.3473 0.02929,0.237 0.07798,0.49639 -0.03731,0.71712 -0.108743,0.20821 -0.324697,0.31896 -0.503374,0.45775 -0.130698,0.10152 -0.246969,0.24372 -0.256208,0.41678 -0.01052,0.19713 0.0457,0.3891 0.04571,0.58664 1e-4,2.06197 -0.09609,4.1262 1.5e-4,6.18592 0.0083,0.17811 0.09111,0.34425 0.09077,0.52401 -1.5e-4,0.0798 -0.09121,0.11523 -0.157037,0.0889 -0.104509,-0.0419 -0.143931,-0.16189 -0.16782,-0.26151 -0.0416,-0.17347 -0.06996,-0.34975 -0.10197,-0.52521 -0.188343,-1.03249 -0.285578,-2.08131 -0.307452,-3.12942 -0.0073,-0.34859 0.07187,-0.70014 0.02404,-1.04652 -0.0051,-0.0368 0.04367,-0.1302 0.02973,-0.13222 -0.07285,-0.0106 -0.123313,-0.0758 -0.16633,-0.12975 -0.212951,-0.26716 -0.345572,-0.58777 -0.53198,-0.8725 -0.04863,-0.0743 -0.07963,-0.16146 -0.06382,-0.25124 0.01625,-0.0923 0.01952,-0.18561 0.0195,-0.27926 -2.33e-4,-1.25506 0.01865,-2.51026 -3.5e-4,-3.76517 -0.0075,-0.49374 -0.147561,-0.98448 -0.07664,-1.47875 0.04171,-0.2907 0.17863,-0.55766 0.336918,-0.80085 0.339392,-0.52144 0.784472,-0.9589 1.18904,-1.42814 0.127128,-0.14745 0.343876,-0.212 0.425515,-0.39545 0.08208,-0.18444 0.03416,-0.3912 0.0011,-0.58099 -0.02905,-0.16654 -0.03604,-0.34306 0.03555,-0.50333 0.146717,-0.32847 0.287521,-0.66255 0.482567,-0.96617 0.09271,-0.14432 0.219498,-0.27335 0.384369,-0.33191 0.189196,-0.0672 0.37926,-0.1334 0.557601,-0.2277 0.342666,-0.18118 0.631087,-0.44344 0.922025,-0.69566 0.224218,-0.19438 0.57967,-0.25465 0.725674,-0.51499 0.192834,-0.34384 0.472689,-0.65701 0.844503,-0.80975 0.374158,-0.1537 0.79,-0.12776 1.182306,-0.0737 0.479768,0.0662 0.962021,0.20719 1.447917,0.14283 0.15363,-0.0203 0.31775,-0.0388 0.44838,-0.12639 0.26139,-0.17529 0.36789,-0.4997 0.63205,-0.67529 0.4202,-0.27932 0.93691,-0.39031 1.32404,-0.72249 0.31581,-0.27098 0.54568,-0.62874 0.71378,-1.00295 0.0436,-0.0971 -0.0807,-0.20853 -0.0221,-0.29228 0.0407,-0.0581 0.11179,-0.0877 0.17051,-0.12627 0.79479,-0.52154 1.9566,-0.71568 2.38435,-1.56463 0.11427,-0.22679 0.15641,-0.49825 0.34465,-0.68142 0.29833,-0.2903 0.73002,-0.38775 1.02424,-0.68439 0.22261,-0.22444 0.46582,-0.4377 0.63253,-0.70788 0.0511,-0.0828 0.12384,-0.1907 0.0709,-0.28548 -0.0482,-0.0862 -0.14954,-0.13837 -0.16842,-0.24205 -0.0273,-0.1498 0.0401,-0.29661 0.10976,-0.4243 0.2122,-0.388849 0.49985,-0.72953 0.77776,-1.072262 0.42763,-0.527379 0.93966,-0.977503 1.46558,-1.403832 0.69444,-0.56294 1.41039,-1.107004 2.01726,-1.768482 0.86815,-0.946265 1.67407,-1.957067 2.33485,-3.056411 0.19097,-0.317717 0.19565,-0.70018 0.34444,-1.035942 0.26087,-0.588698 0.42748,-1.232272 0.7967,-1.760016 0.0199,-0.02846 0.0832,-0.137636 0.0759,-0.109075 -0.0467,0.182935 -0.11697,0.359243 -0.18845,0.533685 -0.0372,0.09083 -0.10201,0.367859 -0.1163,0.270656 -0.006,-0.04054 0.035,-0.139931 0.0557,-0.199127 0.14004,-0.401567 0.27552,-0.805266 0.43574,-1.199219 0.21539,-0.5296 0.52198,-1.030558 0.6215,-1.600497 0.10113,-0.579139 -0.008,-1.164499 -0.007,-1.746619 2.8e-4,-1.371381 -0.0212,-2.742938 4.2e-4,-4.114146 0.0108,-0.683385 0.19872,-1.355112 0.15786,-2.040783 -0.0176,-0.294667 -0.0999,-0.583465 -0.23609,-0.846025 -0.28512,-0.549646 -0.73542,-0.986553 -1.17995,-1.407673 -0.45354,-0.429653 -0.95483,-0.838348 -1.25805,-1.390587 -0.0872,-0.158848 -0.0397,-0.344838 -0.003,-0.511079 0.038,-0.173171 0.0878,-0.362987 0.007,-0.532503 -0.32659,-0.682203 -0.82037,-1.261532 -1.27249,-1.861188 -0.20427,-0.270925 -0.38622,-0.557483 -0.5642,-0.846127 -0.87718,-1.422556 -1.76249,-2.840867 -2.59188,-4.291865 -0.20255,-0.354358 -0.4416,-0.692411 -0.59243,-1.071989 -0.17377,-0.437295 -0.30257,-0.891333 -0.41582,-1.347627 -0.30783,-1.24027 -0.468,-2.523759 -0.9339,-3.719333 -0.14052,-0.360595 -0.43076,-0.628908 -0.68613,-0.908737 -0.15785,-0.17297 -0.33942,-0.343612 -0.41463,-0.567233 -0.0541,-0.160729 0.0203,-0.323758 0.0352,-0.484694 0.0117,-0.126382 -0.058,-0.238947 -0.11911,-0.342952 -0.195,-0.331845 -0.46495,-0.609394 -0.68101,-0.927126 -0.55928,-0.822474 -1.08578,-1.671685 -1.72738,-2.433639 -0.18268,-0.216948 -0.3587,-0.446837 -0.58662,-0.616479 -0.18843,-0.140251 -0.43009,-0.160049 -0.65266,-0.205832 -0.16143,-0.03321 -0.31521,-0.101374 -0.44218,-0.211719 -0.42229,-0.367006 -0.7768,-0.804249 -1.09237,-1.264599 -0.31207,-0.45524 -0.61675,-0.922242 -1.0173,-1.306775 -0.231772,-0.222503 -0.464077,-0.466511 -0.760778,-0.589791 -0.139287,-0.05787 -0.289438,-7.96e-4 -0.427385,0.03102 -0.10587,0.02442 -0.220791,0.02449 -0.320248,-0.03176 -0.668653,-0.378191 -1.15194,-1.004956 -1.80492,-1.403723 -0.399409,-0.243914 -0.832668,-0.424817 -1.258602,-0.616069 -0.578865,-0.259921 -1.172889,-0.500829 -1.701023,-0.855991 -0.240932,-0.162023 -0.493633,-0.339165 -0.630153,-0.601284 -0.06655,-0.127778 -0.01343,-0.27331 0.01153,-0.404733 0.01843,-0.09705 0.05706,-0.234614 -0.02888,-0.296739 -0.064,-0.04626 -0.14811,-0.01266 -0.215628,0.0061 -0.102398,0.02847 -0.209242,0.01725 -0.314116,0.01724 -1.467203,-2.44e-4 -2.934987,0.04053 -4.401614,-3.67e-4 -0.184991,-0.0052 -0.37143,-0.09955 -0.553641,-0.04279 -0.09798,0.03052 -0.174136,0.104049 -0.251227,0.16829 -0.574526,0.478761 -1.005619,1.093804 -1.565253,1.593964 -0.06913,0.06179 -0.159953,0.09404 -0.253141,0.09135 -0.169895,-0.0049 -0.333855,-0.05634 -0.505163,-0.05663 -0.45274,-7.73e-4 -0.905593,0.0081 -1.358228,-0.0013 -0.448017,-0.0093 -0.898177,-0.06932 -1.344703,-0.01881 -0.256625,0.02903 -0.504768,0.107635 -0.74713,0.193842 -0.504332,0.179389 -0.986673,0.445431 -1.519741,0.521582 -0.194745,0.02782 -0.391948,-0.101772 -0.579544,-0.0321 -0.103743,0.03853 -0.191842,0.110342 -0.275643,0.180725 -0.316237,0.265603 -0.562409,0.598969 -0.841201,0.90136 -0.106405,0.115412 -0.175118,0.298166 -0.339682,0.331156 -0.160909,0.03226 -0.32668,0.015 -0.489213,0.0072 -0.244547,-0.0118 -0.489492,-0.014 -0.734109,-0.03221 -0.08003,-0.006 -0.137053,0.05276 -0.194913,0.09775 -0.756327,0.58815 -1.34355,1.355192 -2.035932,2.011201 -0.215807,0.20447 -0.503879,0.360188 -0.628956,0.634078 -0.04829,0.105746 0.06792,0.222826 0.0052,0.323396 -0.312303,0.501096 -0.803287,0.878328 -1.078178,1.398773 -0.489544,0.926841 -0.936526,1.877128 -1.481333,2.77402 -0.393941,0.648528 -0.792583,1.296787 -1.25351,1.900708 -0.101108,0.132475 -0.228081,0.243542 -0.32667,0.377655 -0.0459,0.06244 0.0047,0.139641 0.01557,0.206907 0.05489,0.339266 0.03878,0.685335 0.02148,1.02695 -0.02265,0.447311 -0.07225,0.892848 -0.145179,1.334717 -0.128903,0.781023 -0.291562,1.556551 -0.486286,2.32395 -0.131598,0.518622 -0.331184,1.015854 -0.516828,1.516638 -0.154029,0.415502 -0.316971,0.833663 -0.383439,1.272959 -0.06528,0.431459 0.0049,0.865501 0.01779,1.298083 0.0066,0.219746 0.08033,0.452899 -0.0099,0.661915 -0.05978,0.138479 -0.183198,0.254435 -0.324936,0.292829 -0.118579,0.03212 -0.236967,-0.02119 -0.358537,-0.0038 -0.157161,0.02245 -0.307679,0.09091 -0.468804,0.08539 -0.06733,-0.0023 -0.112221,-0.05876 -0.130797,-0.122144 -0.100425,-0.342691 -0.02692,-0.701881 0.02695,-1.045715 0.0498,-0.317855 0.09881,-0.658297 -0.02656,-0.964611 -0.101415,-0.247773 -0.329673,-0.407294 -0.541777,-0.554682 -0.226131,-0.157135 -0.492404,-0.304516 -0.604865,-0.565315 -0.08568,-0.198695 -0.128974,-0.412575 -0.169357,-0.624089 -0.110413,-0.578305 -0.198856,-1.163753 -0.211326,-1.752614 -0.0048,-0.227616 -0.03353,-0.465609 0.04068,-0.682636 0.169906,-0.49686 0.42766,-0.958003 0.69877,-1.405669 0.304072,-0.502094 0.61631,-0.999589 0.888311,-1.52064 0.480473,-0.920404 0.940592,-1.851255 1.386406,-2.788882 0.18778,-0.394935 0.398212,-0.779591 0.645304,-1.140886 0.468344,-0.684807 0.973609,-1.343339 1.466002,-2.010802 0.294485,-0.399189 0.592466,-0.79589 0.905223,-1.181133 0.383022,-0.471794 0.805342,-0.916669 1.129987,-1.430966 0.146507,-0.232094 0.196639,-0.515597 0.379752,-0.727233 0.234957,-0.271556 0.507952,-0.50726 0.784261,-0.735182 0.350943,-0.289487 0.703592,-0.579148 1.082903,-0.830656 0.12663,-0.08396 0.270062,-0.138431 0.411577,-0.191492 0.641849,-0.240659 1.323454,-0.350344 1.964201,-0.596691 1.29191,-0.496699 2.493483,-1.248705 3.835372,-1.58823 0.121678,-0.03079 0.244875,0.0066 0.368245,0.0066 3.792715,-1.42e-4 7.585565,0.03153 11.378146,-2.13e-4 0.62993,-0.0053 1.267332,-0.13797 1.891139,-0.01144 0.340892,0.06914 0.686358,0.142272 1.002716,0.291599 0.172963,0.08164 0.32985,0.210865 0.40892,0.389202 0.08593,0.193817 0.143108,0.400635 0.253506,0.583675 0.222069,0.36819 0.564258,0.645817 0.918179,0.879774 0.604281,0.399456 1.301535,0.616226 1.967009,0.888028 0.244642,0.09992 0.503278,0.179777 0.721228,0.329627 0.14123,0.0971 0.23245,0.245036 0.34997,0.367284 0.3698,0.384682 0.71979,0.789801 1.12816,1.136135 1.22409,1.038142 2.6429,1.828951 3.81,2.936397 0.35551,0.337338 0.7069,0.689194 0.96924,1.103923 0.1488,0.235234 0.16007,0.52653 0.12793,0.795506 -0.0566,0.473735 -0.22633,0.931233 -0.2264,1.412404 -3e-5,0.211242 0.0618,0.417508 0.15752,0.60472 0.21066,0.411945 0.55478,0.730899 0.88178,1.049409 0.26051,0.253749 0.5094,0.522598 0.70448,0.831927 0.47212,0.748628 0.80823,1.570435 1.22515,2.349151 0.50826,0.949327 1.05994,1.880627 1.44479,2.890059 0.45136,1.183885 0.76253,2.415876 1.02411,3.65364 0.11,0.5205 0.22369,1.040529 0.31488,1.564685 0.14563,0.837032 0.19801,1.689926 0.39097,2.518284 0.10038,0.430913 0.37924,0.828277 0.37979,1.270195 7.5e-4,0.603962 -0.0846,1.213321 0.0159,1.81286 0.0918,0.54764 0.29827,1.062005 0.38906,1.615782 0.0173,0.105277 -0.0698,0.18172 -0.14811,0.235273 -0.0904,0.06182 -0.18053,0.12667 -0.23981,0.223702 -0.25087,0.410624 -0.34326,0.902678 -0.64075,1.287885 -0.5122,0.663224 -1.17023,1.206818 -1.62661,1.913379 -0.31544,0.488357 -0.50211,1.042614 -0.76669,1.557861 -0.70095,1.365037 -1.28588,2.798204 -2.14008,4.076806 -0.28846,0.431778 -0.72455,0.728286 -1.09536,1.082246 -1.02001,0.973649 -2.08709,1.897887 -3.08823,2.890896 -0.29653,0.294121 -0.55455,0.634943 -0.91416,0.858928 -0.32223,0.200702 -0.68978,0.339029 -0.96062,0.614543 -0.43746,0.445003 -0.67851,1.041475 -1.13118,1.476325 -0.0575,0.05527 -0.12585,0.10584 -0.21096,0.106111 -0.17539,5.58e-4 -0.34723,-0.133362 -0.516975,-0.0715 -0.103367,0.03767 -0.190764,0.109519 -0.281396,0.170533 -0.411491,0.277017 -0.787818,0.61243 -1.078984,1.016274 -0.277707,0.385176 -0.507032,0.80223 -0.782326,1.189329 -0.326149,0.458607 -0.706547,0.874643 -1.074347,1.299356 -0.404241,0.466793 -0.858309,0.894653 -1.213403,1.399903 -0.02023,0.0288 -0.09248,0.0932 -0.04806,0.0206 0.133288,-0.21777 0.24424,-0.4487 0.388656,-0.66084 0.03507,-0.0515 0.02917,-0.15671 -0.05899,-0.12377 -0.153741,0.0575 -0.283045,0.16408 -0.412594,0.26181 -0.581097,0.43836 -1.052184,0.99783 -1.573757,1.50103 -0.196141,0.18923 -0.465956,0.30736 -0.60639,0.54922 -0.114067,0.19645 -0.087,0.4338 -0.05215,0.64832 0.03867,0.23806 0.123056,0.4909 0.03862,0.72505 -0.0814,0.22571 -0.260819,0.40227 -0.401021,0.59399 -0.655023,0.89573 -1.284537,1.81235 -1.992074,2.66746 -0.06207,0.075 -0.210449,0.31745 -0.18996,0.22213 0.01051,-0.0489 0.06854,-0.11415 0.106842,-0.16211 0.143558,-0.17977 0.295421,-0.35568 0.475683,-0.5008 0.05078,-0.0409 0.168467,-0.0962 0.185863,3e-4 0.0243,0.13477 -0.0174,0.2719 -0.05596,0.39957 -0.144486,0.47836 -0.311461,0.95414 -0.547423,1.39377 -0.143372,0.26712 -0.414346,0.42204 -0.635624,0.61596 -0.07741,0.0678 -0.118966,0.16516 -0.1749,0.2504 -0.309478,0.47161 -0.699242,0.90513 -0.884551,1.44509 -0.134578,0.39214 -0.203579,0.80367 -0.254295,1.21385 -0.132531,1.07186 -0.154949,2.15365 -0.158943,3.23247 -0.0037,1.01069 0.02033,2.02119 0.01991,3.03188 -4.14e-4,0.98089 0.03096,1.96231 -6.22e-4,2.94267 -0.0063,0.19474 -0.09927,0.40038 -0.01911,0.58589 0.08905,0.20608 0.223826,0.38901 0.362908,0.56387 0.24477,0.30773 0.536414,0.58375 0.725661,0.93107 0.12811,0.23512 0.225157,0.48517 0.351326,0.72162 0.207499,0.38887 0.482908,0.75612 0.581656,1.18876 0.05059,0.22163 -0.07152,0.445 8.37e-4,0.66727 0.225188,0.69173 0.588275,1.32578 0.866689,1.99583 0.258868,0.62301 0.470415,1.27061 0.810892,1.85511 0.22694,0.38959 0.634138,0.66873 0.786732,1.09391 0.03936,0.10967 -0.0055,0.22281 -0.0089,0.33524 -0.0064,0.21291 -0.03227,0.42751 0.01418,0.63955 0.07415,0.33851 0.164494,0.68042 0.336914,0.98208 0.09276,0.1623 0.27052,0.24289 0.394168,0.37617 0.08762,0.0944 0.08159,0.23516 0.0375,0.34866 -0.08365,0.21531 -0.234114,0.41196 -0.445996,0.51552 -0.100357,0.049 -0.219182,0.0497 -0.323219,-2.9e-4 -0.52276,-0.25146 -0.93262,-0.68764 -1.247114,-1.16702 -0.443351,-0.6758 -0.734586,-1.4352 -1.012824,-2.18957 -0.387224,-1.04986 -0.761946,-2.10649 -1.05055,-3.18804 -0.14469,-0.54223 -0.279912,-1.09257 -0.306174,-1.65579 -0.03026,-0.64896 0.02574,-1.29732 0.02664,-1.9464 8.68e-4,-0.62309 -0.0062,-1.24624 0.0019,-1.86928 0.01731,-1.33873 0.167006,-2.68334 0.0095,-4.01781 -0.114995,-0.9742 -0.201888,-1.9552 -0.407601,-2.91484 -0.04686,-0.2186 -0.124935,-0.42956 -0.173652,-0.64914 -0.01536,-0.0692 -0.09161,-0.0995 -0.122204,-0.0132 -0.06332,0.17854 -0.07695,0.37017 -0.09255,0.55748 -0.01631,0.19571 -0.03487,0.78456 -0.03238,0.5882 0.0077,-0.6072 0.03793,-1.21531 0.0073,-1.82174 -0.01659,-0.32867 -0.138054,-0.64722 -0.112892,-0.97901 0.01295,-0.17075 0.102139,-0.32924 0.233979,-0.43777 0.229901,-0.18926 0.529347,-0.25076 0.808678,-0.32979 0.250616,-0.0709 0.505998,-0.16611 0.692438,-0.35831 0.348781,-0.35956 0.547777,-0.82697 0.760351,-1.27213 0.156008,-0.3267 0.358213,-0.6275 0.541716,-0.93878 0.297667,-0.50494 0.557942,-1.0308 0.855333,-1.53585 0.223212,-0.37907 0.498807,-0.73093 0.841629,-1.00962 0.482821,-0.3925 1.047583,-0.66457 1.609805,-0.92255 0.660541,-0.3031 1.363004,-0.52931 1.977722,-0.91842 0.132942,-0.0841 0.184527,-0.26369 0.322357,-0.33359 0.581821,-0.29507 1.140607,-0.64 1.746866,-0.88293 0.314121,-0.12587 0.677225,-0.13288 0.961434,-0.32128 0.131651,-0.0873 0.185071,-0.25243 0.328721,-0.32932 0.63546,-0.34013 1.29863,-0.62531 1.9728,-0.8791 0.64166,-0.24155 1.28242,-0.48951 1.89497,-0.79903 0.32009,-0.16174 0.64274,-0.32116 0.94577,-0.51329 0.55646,-0.35281 1.00661,-0.84996 1.56834,-1.19374 0.43936,-0.26889 0.9693,-0.370713 1.37371,-0.697882 0.24733,-0.200091 0.41349,-0.4821 0.67313,-0.670101 0.19788,-0.143279 0.41982,-0.253916 0.6071,-0.411836 0.0335,-0.02827 0.1144,-0.03912 0.0722,0.02849 -0.0617,0.09888 -0.30302,0.352413 -0.22424,0.267305 0.27632,-0.298513 0.56213,-0.588458 0.85416,-0.87154 0.28344,-0.274753 0.64237,-0.470735 0.87812,-0.794162 0.10238,-0.140458 0.16293,-0.310185 0.16514,-0.485503 0.004,-0.331375 -0.15295,-0.660478 -0.074,-0.987997 0.0532,-0.220779 0.12699,-0.436359 0.20213,-0.650511 0.43862,-1.250018 1.06293,-2.429113 1.43655,-3.703284 0.21891,-0.746565 0.44181,-1.495063 0.5708,-2.26364 0.13077,-0.779154 0.0964,-1.571989 0.0953,-2.358394 -0.002,-1.398957 -9.8e-4,-2.797919 -9.3e-4,-4.196878 9e-5,-2.480747 -0.0856,-4.962979 1.4e-4,-7.442243 0.006,-0.177284 0.096,-0.343519 0.0823,-0.522586 -0.005,-0.07026 -0.0629,-0.116904 -0.12237,-0.14948 -0.78498,-0.429849 -1.66012,-0.646004 -2.51348,-0.894282 -0.74733,-0.217429 -1.50925,-0.447743 -2.15867,-0.888947 -0.31082,-0.211167 -0.60537,-0.459679 -0.81864,-0.77152 -0.29265,-0.427914 -0.40017,-0.950041 -0.4439,-1.458563 -0.0724,-0.842192 0.0285,-1.698962 -0.14403,-2.530993 -0.0826,-0.398283 -0.21601,-0.784165 -0.36166,-1.163184 -0.37051,-0.964151 -0.83997,-1.8909 -1.13077,-2.885254 -0.27541,-0.941717 -0.44282,-1.919586 -0.83777,-2.822828 -0.34812,-0.796139 -0.83838,-1.517328 -1.24446,-2.283301 -0.1234,-0.232762 -0.26502,-0.459936 -0.3433,-0.712731 -0.0826,-0.26676 -0.0809,-0.562835 -0.22752,-0.806708 -0.0937,-0.15596 -0.2463,-0.266193 -0.39816,-0.360126 -0.42108,-0.260458 -0.92004,-0.382383 -1.3059,-0.702529 -0.25687,-0.213125 -0.39735,-0.525599 -0.51592,-0.829456 -0.0928,-0.237869 -0.19333,-0.47269 -0.31638,-0.697383 -0.28182,-0.514622 -0.506309,-1.068745 -0.892048,-1.51979 -0.130419,-0.152499 -0.293916,-0.270813 -0.451036,-0.393623 -0.617708,-0.482819 -1.245988,-0.956003 -1.918124,-1.360558 -0.318573,-0.191747 -0.648912,-0.371242 -1.008746,-0.475478 -0.42305,-0.122548 -0.866773,-0.171314 -1.27994,-0.325725 -0.600707,-0.2245 -1.19666,-0.46188 -1.802379,-0.673079 -0.106139,-0.03701 -0.215806,-0.06024 -0.32854,-0.06819 -0.755096,-0.05324 -1.511509,0.117457 -2.26488,0.01367 -0.543834,-0.07492 -1.038616,-0.326523 -1.551174,-0.507191 -0.315873,-0.11134 -0.645403,-0.200067 -0.984101,-0.193527 -0.426,0.0082 -0.856202,0.112894 -1.279585,0.01997 -0.591372,-0.129788 -1.067138,-0.620241 -1.669337,-0.666826 -0.260505,-0.02015 -0.522291,-0.01842 -0.783441,-0.01904 -0.699224,-0.0016 -1.402566,0.09181 -2.097658,0.01557 -0.07153,-0.0078 -0.1332,0.02866 -0.195319,0.05812 -0.784748,0.372116 -1.403727,1.024413 -2.181422,1.400752 -1.24893,0.604378 -2.467798,1.277928 -3.769071,1.768275 -0.956298,0.360353 -1.948462,0.625719 -2.886003,1.033448 -0.152638,0.06638 -0.317714,0.125588 -0.436652,0.243108 -0.216887,0.2143 -0.646257,0.338032 -0.65066,0.642902 -0.0015,0.104476 0.08691,0.226247 0.01761,0.313453 -0.07929,0.09978 -0.170239,0.190761 -0.257421,0.28402 -0.943606,1.009387 -1.932644,1.991011 -3.069066,2.78145 -0.316627,0.22023 -0.644661,0.43091 -1.004525,0.576091 -0.07683,0.031 -0.185143,0.0068 -0.23728,0.07051 -0.046,0.05618 -0.01732,0.140287 -0.01594,0.207832 0.0098,0.482687 -0.07067,0.961869 -0.15537,1.435332 -0.222149,1.241826 -0.662445,2.43093 -0.927051,3.662431 -0.07553,0.351537 -0.166056,0.705622 -0.156586,1.068332 0.0045,0.171358 0.0595,0.334955 0.118758,0.494641 0.310054,0.835558 0.669581,1.656821 1.139026,2.41643 0.305933,0.49503 0.627164,0.98143 0.896939,1.497874 0.275252,0.526929 0.525327,1.067873 0.735996,1.623791 0.241428,0.637085 0.462206,1.287952 0.571605,1.959907 0.0473,0.290515 -0.009,0.58418 -0.05187,0.871591 -0.04611,0.309444 -0.103746,0.625463 -0.05316,0.938384 0.03267,0.202099 0.149606,0.386409 0.320766,0.503258 0.06274,0.04283 0.134906,0.07264 0.213916,0.06657 0.05957,-0.0046 0.118202,-0.01889 0.178131,-0.01909"
         id="path913"
         inkscape:path-effect="#path-effect915"
         inkscape:original-d="m 67.235551,59.452239 c 0.49993,0 1.017259,0.130739 1.499793,0 1.167836,-0.316423 2.261907,-0.86088 3.380422,-1.322279 0.996776,-0.411181 1.914904,-1.046937 2.964244,-1.294968 0.815644,-0.192792 1.688494,0.142795 2.514359,0 0.357061,-0.06174 5.762704,-1.463318 6.962844,-2.030019 1.083453,-0.511603 2.068906,-1.209354 3.11273,-1.797603 0.221837,-0.125018 0.436436,-0.279066 0.683265,-0.341637 0.214686,-0.05442 0.442955,0 0.66443,0 0.221477,0 0.442955,0 0.66443,0 1.105003,0 2.210006,0 3.315009,0 0.632703,0 1.361205,-0.33473 1.89811,0 1.805152,1.125405 3.200625,2.803075 4.816729,4.186303 0.277797,0.237765 4.108174,3.364937 4.144904,3.405201 0.77537,0.850024 1.36087,1.85657 1.99689,2.815328 2.47746,3.734601 -0.0995,0.26929 2.64489,5.745062 0.59728,1.191733 1.39114,2.275027 2.12713,3.386465 0.33238,0.501936 0.87888,0.881708 1.07595,1.450549 0.29184,0.842394 0.17631,1.776812 0.34539,2.652144 0.54502,2.821479 0.2332,-0.841716 1.07524,2.587164 0.45548,1.854759 -0.78557,1.374773 0,3.683805 0.30398,0.893487 1.26717,1.455793 1.59029,2.342536 0.23072,0.633169 0,1.34779 0,2.021686 0,2.246376 0,4.492752 0,6.739128 0,0.33941 0.18135,0.73133 0,1.018231 -0.47073,0.744701 -1.46237,1.100471 -1.8418,1.895575 -0.39355,0.824685 -0.0725,1.850165 -0.35967,2.717636 -0.11963,0.361331 -0.60604,0.484439 -0.80742,0.807424 -0.88414,1.41797 0.003,0.63879 -0.35744,2.00902 -0.0407,0.15445 -0.28995,0.18674 -0.33879,0.33879 -0.1816,0.56542 0.006,1.26229 -0.33221,1.75036 -0.52952,0.76383 -1.99783,0.65496 -2.696,1.00241 -1.84792,0.91964 0.24349,0.3385 -1.00891,1.34803 -1.03815,0.83682 -3.38773,1.219 -4.2912,1.72709 -0.57648,0.32419 -0.90704,0.96505 -1.39975,1.40628 -0.55595,0.49787 -1.16979,0.92736 -1.741629,1.40691 -0.239999,0.20125 -0.388742,0.51577 -0.66443,0.66443 -0.575662,0.31041 -1.236139,0.45766 -1.786853,0.81044 -0.0938,0.0601 0.02714,0.22615 0,0.3342 -0.08468,0.33716 -0.11938,0.7137 -0.332213,0.98855 -0.239284,0.30902 -0.612804,0.49245 -0.95739,0.67687 -0.09032,0.0483 -0.254884,-0.088 -0.307335,0 -0.925179,1.55226 0.412317,0.62887 -0.990946,2.0632 -0.179443,0.18341 -0.494607,0.18657 -0.676209,0.36785 -0.07246,0.0723 0,0.20476 0,0.30715 0,0.32853 0.1284,0.68319 0,0.98558 -0.134001,0.31559 -0.57204,0.42163 -0.727308,0.72731 -0.10636,0.20939 0,0.46971 0,0.70457 0,0.79237 0,1.58474 0,2.37712 0,1.10767 0,2.21535 0,3.32303 0,0.17802 0,0.35605 0,0.53408 0,0.20981 0.208587,0.60676 0,0.62945 -0.221181,0.0241 -0.255283,-0.37874 -0.298495,-0.59699 -0.157744,-0.79669 -0.244792,-1.60773 -0.298495,-2.41811 -0.255008,-3.84813 0.549894,-0.67663 -0.735234,-3.17413 -0.052,-0.10105 0,-0.2273 0,-0.34095 0,-0.55952 0,-1.11904 0,-1.67855 0,-0.71599 0,-1.43198 0,-2.14796 0,-0.60666 -0.217716,-1.25374 0,-1.81999 0.286326,-0.7447 0.938334,-1.29133 1.43602,-1.91493 0.134385,-0.16839 0.392388,-0.2515 0.456999,-0.45702 0.09963,-0.31692 -0.131953,-0.69176 0,-0.99665 0.777494,-1.79644 0.694386,-1.04581 1.71073,-1.73071 0.478798,-0.32265 0.860062,-0.79544 1.379572,-1.04736 0.999262,-1.75775 2.583762,-0.39454 3.814286,-0.81403 0.31276,-0.10662 0.43052,-0.51111 0.70097,-0.70097 0.42203,-0.29628 0.96242,-0.41099 1.35655,-0.74348 0.31604,-0.2666 0.52413,-0.64572 0.72117,-1.00922 0.051,-0.0941 -0.0843,-0.25516 0,-0.32117 0.84425,-0.554 1.6885,-1.10801 2.53275,-1.66201 0.11265,-0.22493 0.15988,-0.49708 0.33793,-0.67477 0.28563,-0.28506 0.72052,-0.38687 1.00877,-0.66926 1.91163,-1.872721 -0.76468,-0.17595 1.57616,-2.908874 0.94087,-1.098466 2.24568,-1.836608 3.23493,-2.891713 0.90823,-0.968685 1.69747,-2.048714 2.43342,-3.153971 0.19639,-0.294942 0.19604,-0.683189 0.33785,-1.00792 2.10331,-4.816327 -0.33864,1.334061 1.0265,-2.371886 0.21143,-0.573979 0.55399,-1.107528 0.67128,-1.707862 0.11045,-0.565354 0,-1.152086 0,-1.728129 0,-1.372692 0,-2.745382 0,-4.118072 0,-0.926087 0.37151,-1.929964 0,-2.778263 -0.51745,-1.18151 -1.82174,-1.854732 -2.50749,-2.947191 -0.18563,-0.295722 0.14974,-0.732049 0,-1.047467 -0.40863,-0.860758 -1.10008,-1.556771 -1.61646,-2.357541 -0.26437,-0.409956 -3.22635,-5.231555 -3.43231,-5.777939 -0.60802,-1.612926 -0.71812,-3.384817 -1.32169,-4.999413 -0.21301,-0.569817 -0.81515,-0.920213 -1.09342,-1.461164 -0.10131,-0.196948 0.0863,-0.460438 0,-0.664429 -0.16257,-0.384496 -0.4796,-0.683424 -0.71549,-1.027833 -0.65141,-0.951076 -1.569,-2.416595 -2.34132,-3.11215 -0.28627,-0.257818 -0.79063,-0.153641 -1.08239,-0.405231 -1.35116,-1.165132 -1.39115,-2.227395 -2.887234,-3.185678 -0.209674,-0.134306 -0.528648,0.119686 -0.746995,0 -0.660099,-0.361834 -1.155013,-0.970746 -1.782512,-1.386552 -0.881345,-0.584017 -3.172153,-1.246944 -3.643008,-2.107655 -0.108484,-0.198308 0.101066,-0.475938 0,-0.678127 -0.05052,-0.101066 -0.225978,0 -0.338965,0 -1.086668,0 -2.173336,0 -3.26,0 -0.442953,0 -0.885907,0 -1.32886,0 -0.221477,0 -0.48464,-0.129336 -0.664429,0 -0.674928,0.485524 -1.099701,1.266793 -1.77355,1.753814 -0.176429,0.127514 -0.435369,0 -0.653052,0 -0.436039,0 -0.872078,0 -1.308116,0 -0.438338,0 -1.203701,-0.07728 -1.593575,0 -0.724771,0.143672 -1.381948,0.544111 -2.105925,0.691743 -0.217011,0.04425 -0.475194,-0.115073 -0.664429,0 -0.415248,0.25251 -0.6873,0.687308 -1.030952,1.030957 -0.116808,0.116805 -0.194283,0.296495 -0.350425,0.350409 -0.216683,0.07482 -1.218408,-0.08195 -1.328859,0 -0.783688,0.581474 -1.397598,1.3623 -2.093558,2.046348 -0.22397,0.220136 -0.491881,0.404953 -0.666191,0.666178 -0.06146,0.0921 0.05854,0.238197 0,0.332185 -0.311246,0.499684 -0.718786,0.932516 -1.078178,1.398773 -0.454228,0.858451 -0.866661,1.740355 -1.36268,2.575353 -2.590049,4.360077 -1.390134,0.844653 -1.704224,4.276577 -0.07491,0.818486 -0.41443,2.535888 -0.682334,3.424301 -0.239982,0.795822 -0.616976,1.552212 -0.789903,2.365245 -0.09352,0.439687 0,0.899046 0,1.348568 0,0.226296 0.0674,0.46286 0,0.678887 -0.04321,0.138525 -0.178072,0.242845 -0.307821,0.307821 -0.09146,0.0458 -0.204566,0 -0.306848,0 -0.222708,0 -0.598088,0.21141 -0.668121,0 -0.211407,-0.63818 0.230664,-1.385382 0,-2.016858 -0.18483,-0.506002 -0.900348,-0.657587 -1.151072,-1.134385 -0.196075,-0.372874 -0.520568,-2.584368 -0.332214,-3.107965 0.351341,-0.976667 1.014585,-1.811414 1.494155,-2.731921 2.332802,-4.477678 1.009791,-2.640354 3.966644,-6.617631 0.519909,-0.699328 1.11251,-1.343364 1.620663,-2.05128 0.145243,-0.20234 0.192723,-0.462958 0.332216,-0.669306 0.320892,-0.474692 1.847268,-1.627129 2.024028,-1.713262 0.686888,-0.334706 1.469784,-0.424616 2.184133,-0.695817 1.32329,-0.502383 2.601124,-1.119346 3.9239,-1.623081 0.10536,-0.04012 0.225478,0 0.338217,0 0.326086,0 0.652169,0 0.978255,0 0.577516,0 1.155033,0 1.73255,0 1.634482,0 3.268966,0 4.903451,0 1.255654,0 2.511306,0 3.76696,0 0.666443,0 1.346187,-0.13248 1.999329,0 2.168412,0.43983 0.713658,0.87925 2.454466,2.086816 0.818131,0.567524 1.832726,0.783503 2.717213,1.240788 0.14221,0.07352 0.22752,0.225287 0.33959,0.339606 0.34945,0.356449 0.66909,0.744185 1.04494,1.072676 1.5997,1.398116 3.63275,2.381313 4.87724,4.103235 0.51646,0.714592 -0.28915,1.812137 0,2.645063 0.27989,0.806276 1.13989,1.278642 1.60949,1.991313 0.46638,0.707792 0.79174,1.499028 1.18512,2.24985 0.44326,0.846037 0.93694,1.667888 1.3248,2.540711 0.73028,1.643391 1.18741,3.822176 1.51952,5.507398 0.173,0.877824 0.23395,1.775465 0.41128,2.652426 0.0966,0.477806 0.27264,0.936056 0.40896,1.404086 0,0.56715 -0.0661,1.138171 0,1.701453 0.07,0.59644 0.39245,1.154914 0.40586,1.755302 0.004,0.174606 -0.26226,0.236471 -0.35811,0.382471 -0.26843,0.408863 -0.3567,0.925115 -0.65393,1.31355 -0.4956,0.647682 -1.12627,1.188397 -1.5917,1.858092 -0.32724,0.47085 -0.50569,1.029367 -0.76904,1.538714 -0.71381,1.380606 -1.33578,2.814727 -2.16232,4.130947 -0.29093,0.463291 -0.76455,0.782992 -1.1605,1.160492 -0.98936,0.943279 -2.0033,1.860534 -2.99496,2.801397 -0.26794,0.254215 -0.49336,0.554951 -0.78349,0.783506 -0.34609,0.272629 -0.7979,0.404378 -1.11401,0.71126 -0.47777,0.463826 -0.71662,1.152467 -1.23557,1.569715 -0.18619,0.149707 -0.5145,-0.127204 -0.716738,0 -1.535798,0.966018 -1.399011,1.599869 -2.516449,2.902744 -4.109218,4.791126 -0.0029,0.02016 -2.170266,1.792106 -0.496621,0.40602 -0.920504,0.89366 -1.377948,1.34335 -0.223361,0.21958 -0.566576,0.3669 -0.664429,0.66443 -0.141198,0.42931 0.196889,0.94902 0,1.35581 -5.47134,7.56898 -0.09946,-0.63433 -2.364031,4.48531 -0.133596,0.30202 -0.467056,0.46705 -0.700582,0.70058 -0.35337,0.59699 -0.865773,1.12501 -1.060112,1.79096 -0.493733,1.69192 -0.347787,5.30746 -0.347787,6.87766 0,1.12447 0,2.24895 0,3.37342 0,0.22148 -0.09905,0.46634 0,0.66443 0.247619,0.49524 0.689512,0.86816 0.996643,1.32886 0.137356,0.20603 0.221745,0.44282 0.332217,0.66443 0.221742,0.44482 0.507928,0.86311 0.664429,1.33485 0.0701,0.21132 -0.0672,0.45567 0,0.66793 0.197922,0.62512 0.522515,1.20283 0.782847,1.80464 0.289507,0.66926 0.523308,1.36529 0.866669,2.00859 0.220464,0.41304 0.587105,0.73486 0.815734,1.14345 0.05117,0.0914 0,0.20957 0,0.31435 0,0.2042 -0.04087,0.41253 0,0.6126 0.07116,0.3483 0.174826,0.69466 0.332216,1.01341 0.185105,0.37488 0.750763,0.33033 0.332214,0.98538 -0.123053,0.19259 -0.405749,0.40241 -0.613252,0.30662 -1.089186,-0.5028 -1.668695,-1.76285 -2.070155,-2.7777 -0.34667,-0.87633 -1.413571,-3.79167 -1.557949,-5.09827 -0.07861,-0.71144 0,-1.43154 0,-2.14731 0,-0.57867 0,-1.15734 0,-1.73602 0,-1.46498 0.169159,-2.93976 0,-4.39495 -0.961818,-8.2741 -0.808048,1.32386 -0.808048,-4.0869 0,-0.45146 -0.268946,-0.99176 0,-1.35436 0.348303,-0.46959 1.154012,-0.36536 1.575829,-0.7702 0.485622,-0.46608 0.678739,-1.16276 1.033913,-1.73451 1.27313,-2.04947 1.201049,-2.74598 2.906535,-3.64169 0.868487,-0.45613 1.797693,-0.79029 2.664206,-1.25016 0.145301,-0.0771 0.232629,-0.23262 0.348943,-0.34894 0.56212,-0.28584 1.109874,-0.6019 1.686359,-0.85753 0.320124,-0.14196 0.683429,-0.17561 0.996645,-0.33222 0.140077,-0.07 0.193927,-0.25871 0.332217,-0.33221 1.86465,-0.99104 2.66652,-0.97582 4.66968,-2.10367 0.59939,-0.33747 1.08175,-0.85172 1.65023,-1.23901 0.43987,-0.299679 0.99501,-0.408166 1.42266,-0.725047 0.25165,-0.186476 0.41385,-0.476501 0.66442,-0.66443 1.89224,-1.41918 -0.70936,1.040609 1.32886,-0.996645 0.33659,-0.336421 0.82288,-0.571511 1.00991,-1.009103 0.17735,-0.414962 -0.1247,-0.920117 0,-1.35382 0.40976,-1.425173 1.15791,-2.736768 1.58447,-4.157003 0.81277,-2.70619 0.70255,-2.890721 0.70255,-5.118539 0,-3.285395 0,-6.570793 0,-9.856187 0,-0.467019 0,-0.934038 0,-1.401056 0,-0.220065 0.19173,-0.552175 0,-0.660191 -1.70044,-0.957993 -4.04786,-0.913181 -5.35897,-2.358941 -1.01309,-1.117123 -0.42224,-2.994268 -0.8159,-4.450064 -0.31367,-1.159996 -0.90924,-2.226201 -1.29699,-3.363581 -0.34515,-1.012458 -0.50404,-2.086526 -0.89982,-3.080287 -0.33334,-0.836991 -0.85444,-1.5864 -1.27587,-2.382684 -0.12103,-0.228685 -0.25279,-0.452904 -0.35144,-0.692098 -0.13992,-0.339283 -0.10321,-0.780028 -0.36271,-1.03955 -0.46289,-0.462918 -1.22111,-0.546804 -1.68521,-1.008515 -0.36498,-0.363114 -0.45454,-0.924576 -0.70818,-1.372608 -0.32715,-0.577869 -0.563835,-1.233506 -1.033145,-1.7033 -0.123576,-0.123703 -2.176063,-1.760331 -3.099892,-2.071307 -0.454467,-0.152982 -0.935302,-0.216021 -1.393259,-0.358211 -0.184039,-0.05714 -1.85928,-0.732364 -2.087697,-0.7557 -0.797526,-0.08148 -1.611996,0.117401 -2.405029,0 -0.735406,-0.108868 -1.395097,-0.540301 -2.126953,-0.670918 -0.535623,-0.09559 -1.098952,0.107763 -1.63226,0 -0.593513,-0.119927 -1.100584,-0.52434 -1.688084,-0.670922 -0.151675,-0.03784 -2.927458,-0.0186 -2.969635,0 -0.829236,0.365403 -1.531477,0.969113 -2.297216,1.453671 -1.046485,0.506061 -2.068454,1.066311 -3.139456,1.518179 -1.06567,0.449623 -2.182527,0.767668 -3.262127,1.182735 -0.234992,0.09034 -0.475536,0.182981 -0.678299,0.332214 -0.220835,0.218202 -0.441669,0.436404 -0.662504,0.654605 0,0.112774 0.07623,0.255212 0,0.338318 -0.814321,0.887812 -1.670865,1.744747 -2.6066,2.503514 -2.993883,2.427679 -1.462554,-0.32901 -2.183363,3.17356 -0.258371,1.255477 -0.696495,2.46982 -0.947756,3.726739 -0.06628,0.33156 -0.116309,0.696872 0,1.014357 1.094142,2.986706 1.57557,2.671918 2.705814,5.381945 0.296725,0.711464 0.507217,1.459121 0.679778,2.210421 0.167193,0.727925 -0.535977,1.982531 0.307925,2.403954 0.09205,0.04597 0.205782,0 0.308673,0" />
      <path
         style="fill:none;stroke:#208dd4;stroke-width:5;stroke-linecap:butt;stroke-linejoin:miter;stroke-dasharray:none;stroke-opacity:1"
         d="m 91.200982,156.11358 c -0.04036,0.002 -0.108961,-0.0528 -0.12099,-0.0119 -0.01267,0.043 0.05388,0.0398 0.08299,0.0406 0.02585,7e-4 0.04408,-0.0154 0.03034,-0.0464 -0.127888,-0.2887 -0.319301,-0.54231 -0.503486,-0.79662 -0.174065,-0.24034 -0.35207,-0.48237 -0.469295,-0.75686 -0.08356,-0.19567 -0.129216,-0.41306 -0.09623,-0.6251 0.0699,-0.44929 0.257712,-0.87282 0.499826,-1.2549 0.313469,-0.49469 0.709081,-0.93079 1.120936,-1.3445 0.117422,-0.11795 0.231177,-0.23989 0.354475,-0.35168 0.168001,-0.15232 0.381994,-0.24041 0.596068,-0.30663 0.301608,-0.0933 0.618429,-0.14425 0.904593,-0.282 0.081,-0.039 0.163477,-0.0793 0.231084,-0.13885 0.07942,-0.07 0.110391,-0.17604 0.134023,-0.27555 0.02926,-0.1232 0.04,-0.25444 0.10305,-0.36642 0.02599,-0.0462 0.058,-0.10159 0.110399,-0.11275 0.06677,-0.0142 0.135611,-0.0151 0.203597,-0.0169 0.371425,-0.0102 0.743066,-0.005 1.114546,-0.001 0.431691,0.005 0.863261,0.0219 1.294968,0.0207 0.487945,-0.001 0.968915,-0.0934 1.450432,-0.1612 0.404913,-0.0571 0.816448,-0.10364 1.225007,-0.0578 0.264043,0.0296 0.52277,0.10764 0.757494,0.23374 0.65512,0.35195 1.25023,0.81278 1.76125,1.35294 0.5813,0.61444 1.04858,1.3263 1.45974,2.06282 0.3949,0.70739 0.73306,1.44442 1.10917,2.16162 0.19238,0.36684 0.42546,0.71411 0.5738,1.10268 0.0524,0.13718 0.0951,0.27907 0.1111,0.42562 0.031,0.28281 -0.009,0.56625 -0.032,0.84796 -0.009,0.11344 -0.0108,0.22727 -0.0108,0.34104 0,0.86189 -0.0145,1.72389 0,2.58566 0.001,0.0822 0.0435,0.15893 0.0385,0.24164 -0.004,0.0706 -0.0849,0.0899 -0.13555,0.11838 -0.3169,0.17803 -0.62921,0.36563 -0.95724,0.5225 -0.10867,0.052 -0.21822,0.10564 -0.33605,0.134 -0.0633,0.0153 -0.12974,0.008 -0.19095,-0.0127 -0.0981,-0.0333 -0.20017,-0.0543 -0.30368,-0.06 -0.25794,-0.0141 -0.51482,0.0241 -0.76916,0.0622 -0.64201,0.0961 -1.27679,0.23582 -1.92078,0.31992 -0.752458,0.0983 -1.504795,0.19959 -2.260314,0.27192 -0.484949,0.0464 -0.972009,0.0694 -1.459159,0.0709 -0.657939,0.002 -1.3158,-0.0107 -1.973696,-0.0163 -0.881398,-0.008 -1.762827,-0.006 -2.644245,-0.006 -1.226188,3e-5 -2.452543,-0.0201 -3.678565,5e-5 -0.09184,0.002 -0.181422,0.0411 -0.273704,0.0256 -0.0531,-0.009 -0.09258,-0.0486 -0.13407,-0.0793 -0.670535,-0.49687 -1.212606,-1.15402 -1.904686,-1.61886 -0.134311,-0.0902 -0.271526,-0.17606 -0.406008,-0.26604 -0.245682,-0.16439 -0.493571,-0.32796 -0.716622,-0.5224 -0.08608,-0.075 -0.17044,-0.15377 -0.23788,-0.24694 -0.04066,-0.0562 -0.03922,-0.12876 -0.02906,-0.19418 0.0088,-0.0567 0.01577,-0.11378 0.01576,-0.1714 -9e-5,-0.68661 0.01065,-1.3733 -1.36e-4,-2.05984 -0.0056,-0.35944 -0.09506,-0.71009 -0.132669,-1.06632 -0.02462,-0.23319 -0.0258,-0.47413 0.04571,-0.70024 0.04466,-0.14121 0.127421,-0.26583 0.209828,-0.38725 0.296829,-0.43734 0.684777,-0.80282 1.087441,-1.14131 0.487082,-0.40946 1.015081,-0.77334 1.462366,-1.22734 0.08839,-0.0897 0.143233,-0.21227 0.250657,-0.28225 0.07163,-0.0467 0.159879,-0.059 0.243536,-0.0607 0.159465,-0.003 0.316701,0.0282 0.476253,0.0298 0.406086,0.004 0.809608,0.08 1.216349,0.055 0.15477,-0.01 0.307705,-0.04 0.455699,-0.0863 0.389047,-0.12185 0.743393,-0.32813 1.096298,-0.52782 0.311915,-0.1765 0.629491,-0.34811 0.971373,-0.46017 0.394219,-0.12922 0.79783,-0.22766 1.202913,-0.31586 0.618863,-0.13475 1.242117,-0.25302 1.871048,-0.32877 0.279559,-0.0337 0.560463,-0.0647 0.842433,-0.0635 0.105731,4.7e-4 0.211655,0.0126 0.313256,0.0434 0.230168,0.0697 0.427517,0.21532 0.605804,0.37247 0.254287,0.22414 0.481747,0.48038 0.762953,0.67286 0.121727,0.0833 0.256793,0.14513 0.396478,0.19184 0.346261,0.1158 0.712349,0.14637 1.072901,0.18753 0.322042,0.0368 0.646223,0.0861 0.950243,0.20428 0.61508,0.23901 1.23253,0.47378 1.83249,0.74927 0.47768,0.21934 0.94039,0.47572 1.36093,0.79261 0.56921,0.42892 1.05414,0.95614 1.52198,1.49061 0.29224,0.33386 0.59829,0.65548 0.88744,0.992 0.13778,0.16035 0.27839,0.32189 0.37817,0.50968 0.0735,0.13825 0.10777,0.29397 0.1166,0.44946 0.0133,0.23447 -0.001,0.46933 -0.0114,0.7036 -0.0178,0.40351 -0.0245,0.8074 -0.0242,1.21129 1.4e-4,0.17806 -0.005,0.35621 2.2e-4,0.5342 0.005,0.16385 0.0666,0.3218 0.0581,0.48661 -0.004,0.0698 -0.0324,0.13562 -0.0748,0.19166 -0.16305,0.21563 -0.37586,0.39393 -0.62012,0.51121 -0.29047,0.13947 -0.61183,0.19295 -0.92843,0.23545 -0.36267,0.0487 -0.72693,0.10035 -1.07696,0.21388 -0.18317,0.0594 -0.33431,0.18394 -0.47843,0.30724 -0.15155,0.12966 -0.30165,0.27118 -0.49068,0.3435 -0.0982,0.0376 -0.20278,0.0546 -0.3065,0.0684 -0.37215,0.0495 -0.74812,0.0151 -1.12045,-0.013 -0.21086,-0.0159 -0.42222,-0.0242 -0.63378,-0.0243 -0.744644,-4.5e-4 -1.490456,0.0183 -2.233915,-0.0349 -0.586112,-0.0419 -1.168135,-0.14089 -1.734477,-0.29809 -0.595073,-0.16518 -1.133902,-0.78015 -1.735302,-0.64189 -0.327712,0.0753 -0.671028,0.11633 -1.00475,0.0547 -0.245095,-0.0453 -0.476552,-0.16218 -0.655716,-0.3363 -0.220822,-0.21461 -0.362358,-0.49496 -0.474807,-0.77794 -0.180124,-0.45329 -0.2881,-0.93361 -0.49715,-1.37557 -0.117319,-0.24803 -0.277468,-0.48247 -0.500934,-0.64777 -0.06426,-0.0475 -0.136271,-0.0873 -0.216202,-0.1005 -0.146031,-0.0241 -0.292602,0.0114 -0.435558,0.0385 -0.141279,0.0268 -0.290056,0.0568 -0.431286,0.0164 -0.346152,-0.0989 -0.664506,-0.27307 -0.970341,-0.45932 -0.138866,-0.0846 -0.27924,-0.16684 -0.415234,-0.25595 -0.105361,-0.069 -0.214219,-0.14904 -0.266328,-0.26711 -0.05303,-0.12015 -0.05011,-0.25531 -0.03797,-0.38338 0.01079,-0.11388 0.02425,-0.22768 0.02417,-0.34238 -1.55e-4,-0.21405 0.0094,-0.42832 -2.33e-4,-0.64215 -0.0038,-0.0841 -0.04121,-0.16404 -0.03443,-0.2493 0.0038,-0.0473 0.04487,-0.0749 0.07867,-0.10152 0.212228,-0.16739 0.46322,-0.27291 0.704231,-0.3907 0.160291,-0.0783 0.314874,-0.16883 0.456937,-0.27762 0.266178,-0.20383 0.503665,-0.44242 0.722647,-0.69576 0.227068,-0.26269 0.443982,-0.5375 0.712799,-0.7602 0.299887,-0.24844 0.656358,-0.42001 1.024853,-0.53984 0.186142,-0.0605 0.37483,-0.11728 0.569655,-0.14236 0.370262,-0.0477 0.743989,-0.0107 1.113783,0.0219 0.226018,0.0199 0.452665,0.0344 0.679722,0.0343 0.465843,-1e-4 0.931702,0.004 1.397531,-1.6e-4 0.863121,-0.007 1.716091,-0.18242 2.579835,-0.17337 0.410177,0.004 0.826266,0.0462 1.213195,0.18692 0.21863,0.0795 0.40201,0.23196 0.55643,0.40265 0.28547,0.31555 0.4919,0.69615 0.79647,0.99498 0.10498,0.103 0.21956,0.19564 0.33439,0.28727 0.56209,0.44849 1.17581,0.82932 1.7203,1.30048 0.3412,0.29525 0.66942,0.60849 0.95252,0.96048 0.17516,0.21778 0.34094,0.44869 0.44536,0.70946 0.0658,0.16427 0.1052,0.34649 0.0687,0.52319 -0.0181,0.0878 -0.0656,0.16502 -0.11361,0.23947 -0.20959,0.32473 -0.46618,0.62561 -0.78744,0.84514 -0.27013,0.18459 -0.5802,0.29952 -0.89295,0.38874 -0.36608,0.10443 -0.73656,0.19316 -1.09954,0.30869 -0.27206,0.0866 -0.53699,0.19357 -0.79963,0.30527 -0.65657,0.27924 -1.30354,0.58202 -1.931146,0.9218 -0.387554,0.20982 -0.772034,0.4264 -1.173566,0.60902 -0.465514,0.21172 -0.936892,0.41926 -1.430809,0.55068 -0.111357,0.0296 -0.224266,-0.0294 -0.336325,-0.001 -0.351576,0.0891 -0.689204,0.22264 -1.030192,0.34431 -0.240041,0.0856 -0.45187,0.23817 -0.698998,0.30572 -0.101046,0.0276 -0.207484,0.0302 -0.311234,0.0133 -0.85895,-0.13977 -1.721395,-0.28489 -2.55162,-0.55202 -0.487019,-0.1567 -0.964227,-0.3527 -1.402482,-0.61807 -0.438287,-0.26539 -0.803958,-0.64054 -1.084045,-1.06792 -0.351345,-0.53611 -0.578014,-1.14298 -0.749489,-1.75756 -0.241238,-0.86462 -0.366977,-1.75515 -0.555806,-2.63148 -0.08115,-0.37661 -0.164076,-0.75574 -0.307425,-1.11401 -0.09776,-0.24434 -0.266637,-0.45091 -0.44119,-0.64445 -0.206604,-0.22908 -0.456348,-0.43331 -0.590523,-0.71339 -0.01894,-0.0395 -0.05348,-0.0753 -0.05452,-0.12072 -0.0056,-0.24538 -0.0037,-0.49088 -0.0034,-0.73631 6.22e-4,-0.40848 0.02145,-0.81728 0.0052,-1.22542 -0.0063,-0.15788 -0.0716,-0.30776 -0.07082,-0.46631 3.28e-4,-0.0666 0.02159,-0.13549 0.07108,-0.18244 0.274275,-0.26022 0.545957,-0.52462 0.843048,-0.75897 0.196092,-0.15468 0.408297,-0.29939 0.651273,-0.3683 0.233662,-0.0663 0.479111,-0.0627 0.719762,-0.0621 0.230319,6.4e-4 0.460893,0.007 0.690959,-0.009 0.403592,-0.0282 0.805927,-0.097 1.211692,-0.0771 0.191171,0.009 0.380188,0.047 0.562231,0.10703 0.990438,0.32631 1.970862,0.69781 2.889785,1.19477 0.559458,0.30256 1.087827,0.66025 1.587317,1.05352 0.592579,0.46656 1.157267,0.96693 1.738551,1.44724 0.831627,0.68717 1.685948,1.35102 2.59676,1.9291 0.2655,0.16851 0.56921,0.26069 0.8684,0.34918 0.30704,0.0908 0.62048,0.17712 0.89862,0.34034 0.0571,0.0335 0.13047,0.0539 0.16511,0.11034 0.0234,0.0382 0.0223,0.0864 0.0241,0.12994 0.009,0.20303 -2.3e-4,0.40629 -0.007,0.60925 -0.005,0.16955 -0.0196,0.339 -0.0173,0.50863 0.004,0.30018 0.0815,0.59242 0.11567,0.88941 0.0227,0.19703 0.0261,0.40156 -0.0368,0.59241 -0.0414,0.12579 -0.12053,0.23419 -0.19804,0.33966 -0.30125,0.40994 -0.70169,0.73559 -1.1268,1.00974 -0.71442,0.46072 -1.504715,0.78525 -2.236758,1.21477 -0.233426,0.13696 -0.464681,0.28049 -0.673712,0.45297 -0.433054,0.35734 -0.752426,0.82768 -1.165121,1.20586 -0.106911,0.098 -0.215384,0.19695 -0.340602,0.27037 -0.0907,0.0532 -0.200714,0.0506 -0.301606,0.0373 -0.129635,-0.0171 -0.257741,-0.0485 -0.389494,-0.0485 -1.475439,3e-5 -2.951024,-0.0206 -4.426318,5e-5 -0.102735,0.001 -0.203803,0.0427 -0.306781,0.0242 -0.05679,-0.0102 -0.10265,-0.0477 -0.150273,-0.0775 -0.660192,-0.41285 -1.259134,-0.9125 -1.88143,-1.37829 -0.467813,-0.35016 -0.939381,-0.69547 -1.399946,-1.05519 -0.267822,-0.20918 -0.525346,-0.43159 -0.768893,-0.66867 -0.353278,-0.3439 -0.696469,-0.69795 -1.044692,-1.04692 -0.299994,-0.30064 -0.595128,-0.60639 -0.903783,-0.89813 -0.200315,-0.18934 -0.428713,-0.35107 -0.599365,-0.57039 -0.09891,-0.12712 -0.160863,-0.27814 -0.20611,-0.43169 -0.06976,-0.23673 -0.09988,-0.48939 -0.220407,-0.70753 -0.06494,-0.11753 -0.179162,-0.19487 -0.286982,-0.26948 -0.107119,-0.0741 -0.223326,-0.14604 -0.293444,-0.25907 -0.05877,-0.0947 -0.07076,-0.20977 -0.06826,-0.3189 0.0035,-0.15426 0.03039,-0.30697 0.02833,-0.46167 -0.0045,-0.33827 -0.02034,-0.67996 0.04038,-1.01434 0.03014,-0.16601 0.0779,-0.3338 0.176702,-0.47317 0.04316,-0.0609 0.101552,-0.10834 0.162518,-0.15089 0.539841,-0.37677 1.142441,-0.65207 1.754442,-0.88888 0.389378,-0.15067 0.781399,-0.29478 1.177265,-0.42731 0.413105,-0.1383 0.84793,-0.18708 1.275961,-0.25665 0.245118,-0.0398 0.488423,-0.0919 0.726432,-0.16364 0.856386,-0.25827 1.676809,-0.61899 2.525622,-0.8997 0.970008,-0.32079 1.952099,-0.60349 2.924291,-0.91734 0.694237,-0.22412 1.365273,-0.5205 2.075517,-0.69427 0.285538,-0.0699 0.577259,-0.11411 0.870845,-0.13074 0.70494,-0.0399 1.408301,0.0483 2.113138,0.0481 0.447219,-1e-4 0.894504,0.007 1.341654,-1.6e-4 0.31365,-0.005 0.61912,-0.0991 0.93336,-0.0957 0.14923,0.002 0.29918,0.0354 0.43037,0.10919 0.27251,0.15331 0.49345,0.38046 0.69498,0.61612 0.25751,0.30112 0.48759,0.63034 0.79194,0.88726 0.0588,0.0497 0.11533,0.10459 0.18348,0.14063 0.0698,0.0369 0.1522,0.0224 0.22552,0.005 0.0987,-0.0231 0.19502,-0.0637 0.29782,-0.0646 0.0511,-4.4e-4 0.0998,0.023 0.13511,0.0605 0.10973,0.11647 0.15934,0.27395 0.19193,0.42719 0.0429,0.2017 0.0661,0.4091 0.14431,0.6021 0.11601,0.28613 0.2547,0.5663 0.44781,0.80927 0.23546,0.29625 0.5252,0.54696 0.73896,0.86082 0.0941,0.13818 0.16657,0.29102 0.2116,0.45251 0.12648,0.45358 0.21554,0.92443 0.19108,1.39734 -0.018,0.34838 -0.11381,0.69337 -0.28737,0.99693 -0.20995,0.36721 -0.51645,0.66715 -0.8376,0.9372 -0.41006,0.34481 -0.84359,0.66024 -1.25764,1.00017 -0.40769,0.33471 -0.82882,0.66647 -1.15065,1.08478 -0.84091,1.09302 -1.30256,2.6364 -2.52273,3.27905 -0.400237,0.2108 -0.844766,0.32633 -1.234778,0.55767 -0.148174,0.0879 -0.293435,0.18813 -0.403107,0.32177 -0.09801,0.11943 -0.131846,0.27534 -0.151025,0.42506 -0.02501,0.19522 -0.0261,0.39517 -0.08702,0.58431 -0.03885,0.12064 -0.116587,0.22639 -0.21545,0.30502 -0.154846,0.12316 -0.345667,0.1881 -0.534108,0.24086 -0.111439,0.0312 -0.226607,0.0478 -0.342329,0.0505 -0.276002,0.007 -0.550135,-0.0436 -0.826409,-0.0296 -0.42668,0.0217 -0.843888,0.13658 -1.271983,0.14069 -0.224833,0.002 -0.455247,-0.0331 -0.655431,-0.14007 -0.770986,-0.41194 -1.466042,-0.94909 -2.13158,-1.51205 -0.832485,-0.70417 -1.631338,-1.45022 -2.512286,-2.09549 -1.050954,-0.76979 -2.110461,-1.52892 -3.199855,-2.24374 -0.366464,-0.24046 -0.742017,-0.46652 -1.115057,-0.69655 -0.157109,-0.0969 -0.31734,-0.19654 -0.437639,-0.33933 -0.124225,-0.14745 -0.227812,-0.31065 -0.334638,-0.47071 -0.636325,-0.95339 -1.299739,-1.89069 -2.026192,-2.77685 -0.168358,-0.20537 -0.415615,-0.32716 -0.582691,-0.53375 -0.07547,-0.0933 -0.125062,-0.20513 -0.160102,-0.31899 -0.03702,-0.12029 -0.04808,-0.2569 0.0091,-0.37313 0.05775,-0.1174 0.172919,-0.19355 0.29036,-0.24232 0.193719,-0.0805 0.402957,-0.1118 0.609274,-0.14156 0.182983,-0.0264 0.369348,-0.0373 0.548173,-0.0856 0.06093,-0.0165 0.124785,-0.0344 0.171119,-0.0809 0.07579,-0.076 0.111179,-0.18547 0.197155,-0.2521 0.04626,-0.0359 0.106517,-0.0422 0.162312,-0.0507 0.256882,-0.0391 0.515698,0.005 0.772874,0.0165 0.11864,0.005 0.237427,0.003 0.35615,0.003 1.981088,-3e-5 3.962226,0.0141 5.943263,-5e-5 0.479047,-0.003 0.949888,-0.12243 1.429562,-0.11338 0.23381,0.004 0.468967,0.0483 0.681667,0.14859 0.272347,0.12847 0.499908,0.33245 0.70571,0.54884 0.289575,0.30448 0.54228,0.64668 0.869401,0.91331 0.413159,0.33676 0.815725,0.69184 1.274448,0.96651 0.09693,0.058 0.19248,0.12053 0.297273,0.16284 0.09319,0.0376 0.196084,0.0198 0.291627,0.002 0.105053,-0.0196 0.214917,-0.0524 0.320518,-0.0233 0.06542,0.0181 0.126041,0.0502 0.185132,0.0828 0.224686,0.124 0.435662,0.27147 0.639121,0.42735 0.24658,0.18892 0.488035,0.38675 0.702194,0.6122 0.07015,0.0738 0.18115,0.13373 0.195538,0.23474 0.0083,0.058 0.008,0.11704 0.0089,0.17557 0.0035,0.21365 -0.02299,0.42842 -0.0017,0.64109 0.0059,0.0593 -0.0321,0.10716 -0.06213,0.15405 -0.08048,0.12567 -0.196295,0.23303 -0.339006,0.28315 -0.159473,0.056 -0.33266,0.0406 -0.496086,0.0121 -0.217069,-0.0378 -0.430139,-0.10675 -0.651915,-0.11141 -0.140368,-0.003 -0.288007,0.0299 -0.396793,0.12335 -0.130577,0.11212 -0.209483,0.26818 -0.310297,0.40483 -0.06898,0.0935 -0.154126,0.18709 -0.269734,0.21774 -0.320449,0.0849 -0.655685,0.0872 -0.984524,0.0682 -0.358582,-0.0207 -0.716145,-0.0549 -1.075661,-0.0645 -0.17561,-0.005 -0.349317,-0.0512 -0.525823,-0.0324 -0.0911,0.01 -0.17393,0.0517 -0.256529,0.0879 -0.221008,0.0968 -0.446358,0.19083 -0.645063,0.32881 -0.06686,0.0464 -0.133565,0.0969 -0.180648,0.16497 -0.02487,0.0359 0.006,0.0758 0.0026,0.11946 -0.0019,0.0241 -0.04293,0.0152 -0.06141,0.0148 -0.203646,-0.004 -0.81472,-0.007 -0.611015,-0.008 0.246095,-2.9e-4 0.492191,-0.001 0.738285,-6.8e-4 0.104885,1.4e-4 0.209876,-0.006 0.314721,2.6e-4 0.07627,0.004 0.143204,0.0445 0.205357,0.0852 0.176852,0.11602 0.357838,0.22556 0.543209,0.32746"
         id="path917"
         inkscape:path-effect="#path-effect919"
         inkscape:original-d="m 91.200982,156.11358 c -0.04155,0 -0.124642,-0.0415 -0.124642,0 0,0.0416 0.140922,0.0382 0.124642,0 -0.322598,-0.75739 -1.209691,-1.4131 -1.072258,-2.22478 0.193765,-1.14435 1.112599,-2.077 1.938684,-2.89226 0.449458,-0.44357 1.230162,-0.37346 1.743297,-0.74151 0.230079,-0.16502 0.11801,-0.62467 0.361918,-0.76846 0.0962,-0.0567 2.445668,0 2.619254,0 1.135155,0 2.404221,-0.53487 3.405463,0 2.35009,1.25542 3.24272,3.39115 4.3219,5.52284 0.23092,0.45615 0.53777,0.88418 0.67785,1.37588 0.12098,0.42468 0,0.88315 0,1.32473 0,0.66455 0,1.32911 0,1.99367 0,0.22599 0,0.45198 0,0.67797 0,0.10167 0.0884,0.25479 0,0.30499 -2.11956,1.20357 -1.02025,0.49432 -2.3812,0.66354 -0.70701,0.0879 -1.40287,0.25252 -2.10913,0.34622 -3.640682,0.483 -2.988069,0.33221 -7.120967,0.33221 -1.322051,0 -2.644105,0 -3.966157,0 -0.336026,0 -0.672054,0 -1.008081,0 -0.113252,0 -0.247914,0.0663 -0.339756,0 -0.698799,-0.5042 -1.29861,-1.13402 -1.973863,-1.66934 -0.07235,-0.0574 -1.211279,-0.74751 -1.377972,-1.06119 -0.04879,-0.0918 0,-0.20794 0,-0.31191 0,-0.68919 0,-1.37838 0,-2.06757 0,-0.66102 -0.334621,-1.413 0,-1.98306 0.622369,-1.06029 1.776887,-1.69967 2.662362,-2.55259 0.109813,-0.10577 0.17911,-0.27427 0.323435,-0.32343 0.197522,-0.0673 0.417338,0 0.626007,0 0.531865,0 1.081582,0.13663 1.595599,0 0.712263,-0.18934 1.307793,-0.68658 1.994445,-0.95431 0.925814,-0.36098 3.68868,-0.87166 4.299995,-0.75669 0.689477,0.12967 1.078595,0.9325 1.724255,1.20694 0.671835,0.28556 1.464746,0.17512 2.145768,0.43801 2.47063,0.95375 3.19461,1.2744 4.6592,2.94677 1.85015,2.11262 1.43174,1.23909 1.43174,3.83322 0,0.21602 0,0.43203 0,0.64805 0,0.22406 0.13374,0.49242 0,0.67219 -0.70275,0.94468 -1.70348,0.63632 -2.67625,0.99478 -0.38552,0.14207 -0.63464,0.57689 -1.03494,0.66946 -0.6041,0.13969 -1.24008,0 -1.86011,0 -2.160136,0 -3.390324,0.10902 -5.804274,-0.97479 -2.678703,0.62404 -1.927603,-2.35813 -3.20598,-3.13065 -0.290446,-0.17552 -0.692097,0.0943 -1.018077,0 -0.474964,-0.13747 -0.898276,-0.4186 -1.320019,-0.67672 -0.135917,-0.0832 -0.286666,-0.18719 -0.338035,-0.33803 -0.07034,-0.20655 0,-0.4364 0,-0.6546 0,-0.22285 0,-0.44569 0,-0.66854 0,-0.10828 -0.08216,-0.25431 0,-0.32484 0.336174,-0.2886 0.796978,-0.39816 1.151581,-0.6638 1.162679,-0.87098 1.071157,-1.65044 2.799593,-2.12269 0.648512,-0.17719 1.344567,0 2.01685,0 0.471199,0 0.942398,0 1.413597,0 1.266299,0 2.594544,-0.39122 3.798894,0 0.66754,0.21684 0.95285,1.0347 1.48225,1.49551 0.60052,0.52271 1.2931,0.93208 1.89943,1.44803 0.26038,0.22156 1.94051,1.65029 1.46074,2.41981 -0.92226,1.47923 -1.79994,1.14982 -3.43714,1.83732 -2.709584,1.13781 -2.405856,1.37781 -4.711083,2.15694 -0.106823,0.0361 -0.228886,-0.0274 -0.338278,0 -0.345929,0.0865 -0.67646,0.22581 -1.014833,0.33828 -0.334013,0.11102 -0.654886,0.3886 -1.002321,0.33221 -1.338252,-0.21719 -2.730892,-0.45538 -3.907438,-1.12905 -2.247993,-1.28716 -2.075355,-4.72192 -2.76188,-6.5835 -0.213029,-0.57766 -0.817231,-0.93755 -1.097015,-1.48599 -0.01299,-0.0255 0,-1.95545 0,-1.97222 0,-0.22148 -0.16011,-0.5114 0,-0.66443 1.36331,-1.30299 1.403614,-1.18696 2.603317,-1.18696 0.67337,0 1.379869,-0.20861 2.020115,0 4.75828,1.55034 4.518769,2.72602 8.833116,5.62003 0.5902,0.3959 1.4016,0.39199 1.96696,0.82261 0.0623,0.0475 0,1.0261 0,1.23484 0,0.55334 0.29541,1.19213 0,1.66002 -0.87904,1.39231 -2.827849,1.85623 -4.054296,2.77179 -0.592225,0.44211 -0.979144,1.12921 -1.590024,1.54515 -0.187159,0.12744 -0.452848,0 -0.679273,0 -0.644708,0 -1.289413,0 -1.93412,0 -0.838634,0 -1.677268,0 -2.515902,0 -0.1255,0 -0.269235,0.0652 -0.376499,0 -0.673465,-0.40903 -1.280195,-0.91914 -1.91202,-1.38995 -2.408306,-1.79456 -1.613498,-1.18645 -4.133908,-3.67267 -0.236315,-0.23311 -0.531262,-0.42079 -0.704151,-0.70415 -0.189302,-0.31026 -0.191339,-0.70636 -0.354582,-1.03108 -0.132656,-0.26388 -0.537845,-0.34481 -0.62653,-0.62653 -0.06476,-0.2057 0,-0.4313 0,-0.64695 0,-0.43721 -0.07144,-1.36565 0.338396,-1.65741 0.871207,-0.62017 1.91334,-0.96857 2.920831,-1.32715 0.630277,-0.22433 1.322046,-0.22452 1.964375,-0.41158 0.85325,-0.24848 1.669225,-0.61133 2.512394,-0.89212 0.977024,-0.32536 1.964642,-0.61801 2.94727,-0.92604 0.855348,-0.26812 1.681197,-0.66287 2.566654,-0.80241 0.831416,-0.13102 1.683353,0 2.525027,0 0.456094,0 0.912188,0 1.368278,0 0.45365,0 0.96212,-0.21616 1.36096,0 0.68876,0.3733 1.03623,1.19592 1.67707,1.64656 0.18117,0.12739 0.5083,-0.15709 0.66443,0 0.24822,0.24973 0.20165,0.67572 0.33221,1.00272 0.0935,0.23419 0.19934,0.46622 0.33832,0.67662 0.33029,0.50002 0.89994,0.87218 1.06522,1.44819 0.88951,3.09992 -1.26656,3.17105 -3.3319,5.45261 -0.84091,1.09302 -1.68182,2.18604 -2.52273,3.27905 -0.537481,0.28356 -1.192803,0.41112 -1.612435,0.85066 -0.285684,0.29923 -0.107479,0.85126 -0.339452,1.19381 -0.158817,0.23453 -0.469718,0.34273 -0.745313,0.40807 -0.316487,0.075 -0.650521,0 -0.975781,0 -0.685247,0 -1.451776,0.32372 -2.055741,0 -1.694765,-0.90837 -3.003933,-2.40291 -4.552947,-3.54217 -7.198646,-5.29443 -2.899005,-1.03355 -7.183274,-6.57126 -0.194966,-0.252 -0.533463,-0.39041 -0.676838,-0.67495 -0.534353,-1.06046 1.008528,-0.87975 1.476595,-1.06956 0.145129,-0.0589 0.180284,-0.29423 0.332216,-0.33221 0.322294,-0.0806 0.664429,0 0.996643,0 0.614502,0 1.229002,0 1.843505,0 1.438307,0 2.876614,0 4.314918,0 0.682389,0 1.414888,-0.25667 2.047166,0 0.694766,0.28204 1.087831,1.03437 1.668758,1.50847 0.490022,0.39991 0.97399,0.82578 1.53923,1.1096 0.199755,0.10031 0.463153,-0.0833 0.670573,0 0.401881,0.16141 1.40331,0.92864 1.682467,1.34445 0.01296,0.0193 0.01921,0.86567 0,0.87665 -0.454316,0.86646 -1.283441,0.0626 -1.844133,0.33871 -0.29147,0.14353 -0.374348,0.60907 -0.689207,0.6892 -0.65222,0.16598 -1.346015,0 -2.01902,0 -0.226121,0 -0.469448,-0.0865 -0.67836,0 -1.944499,0.80529 -0.09692,0.67544 -1.626076,0.67544 -0.204973,0 0.409943,0 0.614913,0 0.72599,0 0.313385,-0.0714 1.186659,0.41227" />
    </g>
  </g>
</svg>
